<svg xmlns="http://www.w3.org/2000/svg" xml:space="preserve" fill-rule="evenodd" stroke-linejoin="round" stroke-miterlimit="2" clip-rule="evenodd" viewBox="0 0 592 163"><g fill-rule="nonzero"><path d="M202.408 36.94h8.95l13.246 39.012 13.161-39.012h8.853V83.08h-5.938V55.857c0-.965.022-2.52.065-4.663.043-2.197.064-4.555.064-7.02L227.653 83.08h-6.19l-13.246-38.905v1.394c0 1.125.027 2.893.075 5.198.054 2.304.08 4.019.08 5.09V83.08h-5.964V36.94ZM249.335 36.94h7.288l13.247 22.185 13.252-22.185h7.314L273.01 64.484V83.08h-6.249V64.484L249.335 36.94Z"/></g><g fill-rule="nonzero"><path d="M325.1 78.296c-3.457 3.161-7.872 4.77-13.252 4.77-6.656 0-11.891-2.144-15.696-6.431-3.81-4.287-5.718-10.182-5.718-17.63 0-8.092 2.165-14.309 6.5-18.703 3.767-3.804 8.564-5.68 14.383-5.68 7.786 0 13.477 2.519 17.078 7.663 1.989 2.84 3.055 5.734 3.205 8.628h-9.673c-.627-2.198-1.43-3.912-2.416-5.038-1.758-1.982-4.368-3-7.819-3-3.515 0-6.29 1.393-8.322 4.233-2.03 2.84-3.044 6.86-3.044 12.057 0 5.198 1.072 9.056 3.216 11.682 2.148 2.572 4.876 3.858 8.182 3.858 3.392 0 5.975-1.125 7.754-3.322.987-1.179 1.801-3 2.45-5.359h9.576c-.836 5.037-2.97 9.11-6.404 12.272ZM356.138 83.065c-6.613 0-11.666-1.822-15.166-5.412-4.688-4.394-7.03-10.771-7.03-19.077 0-8.467 2.342-14.844 7.03-19.078 3.5-3.644 8.553-5.412 15.166-5.412 6.618 0 11.671 1.768 15.17 5.412 4.668 4.234 6.999 10.61 6.999 19.078 0 8.306-2.331 14.683-6.999 19.077-3.499 3.59-8.552 5.412-15.17 5.412Zm9.142-12.432c2.24-2.84 3.36-6.86 3.36-12.057 0-5.198-1.126-9.217-3.376-12.058-2.251-2.84-5.295-4.233-9.126-4.233-3.826 0-6.886 1.393-9.164 4.233-2.283 2.84-3.424 6.86-3.424 12.058 0 5.198 1.141 9.217 3.424 12.057 2.278 2.84 5.338 4.233 9.164 4.233 3.831 0 6.88-1.393 9.142-4.233ZM391.323 81.779h-9.008v-46.3h14.067l8.413 36.386 8.354-36.386h13.906v46.3h-9.008V50.484c0-.911.011-2.197.032-3.805.022-1.607.033-2.894.033-3.751l-8.762 38.851h-9.388l-8.698-38.851c0 .857.011 2.144.032 3.751.022 1.608.027 2.894.027 3.805v31.295ZM452.477 65.113h-9.828V81.78h-9.608v-46.3h20.16c4.646 0 8.354 1.18 11.114 3.59 2.765 2.412 4.147 6.056 4.147 11.093 0 5.466-1.382 9.325-4.147 11.575-2.76 2.25-6.71 3.376-11.838 3.376ZM457 55.468c1.254-1.072 1.886-2.84 1.886-5.252 0-2.411-.637-4.126-1.902-5.144-1.265-1.019-3.038-1.555-5.321-1.555h-9.014v13.665h9.014c2.283 0 4.062-.59 5.337-1.714ZM495.095 72.24h-17.051l-3.205 9.539h-10.106l16.515-46.3h10.927l16.387 46.3h-10.487l-2.98-9.539Zm-2.7-7.93-5.777-18.22-5.97 18.22h11.747ZM548.65 81.779h-9.672l-18.9-32.903V81.78h-9.013v-46.3h10.138l18.434 32.314V35.479h9.014v46.3ZM591.81 35.48 576.33 64.362v17.416h-9.673V64.363l-16.012-28.884h11.398l9.609 20.15 9.2-20.15h10.96Z"/></g><g fill-rule="nonzero"><path d="M205.087 96.154c.049-1.35.282-2.332.702-2.945.755-1.105 2.21-1.657 4.37-1.657h.629c.214.03.46.03.736.061v2.946c-.338 0-.58-.03-.727-.03h-.424c-.982 0-1.57.245-1.76.736-.194.521-.29 1.81-.29 3.896h3.201v2.547h-3.237v16.63h-3.2v-16.63h-2.68v-2.547h2.68v-3.007ZM212.757 99.07h3.075v3.344c.252-.645.868-1.442 1.85-2.363.985-.951 2.117-1.411 3.4-1.411.058 0 .16 0 .304.03.144 0 .39.031.74.062v3.436c-.194-.061-.372-.061-.532-.092h-.53c-1.63 0-2.885.522-3.76 1.565-.874 1.043-1.313 2.24-1.313 3.62v11.078h-3.234v-19.27ZM231.106 98.64c1.366 0 2.691.337 3.974.982 1.282.613 2.258 1.472 2.93 2.485.647.951 1.077 2.086 1.295 3.375.19.89.288 2.301.288 4.265H225.48c.058 1.933.521 3.529 1.384 4.695.862 1.196 2.2 1.78 4.01 1.78 1.688 0 3.038-.553 4.044-1.688a5.552 5.552 0 0 0 1.224-2.24h3.182c-.086.706-.365 1.503-.837 2.363a9.344 9.344 0 0 1-1.59 2.147c-.985.952-2.2 1.596-3.651 1.933-.78.185-1.66.277-2.642.277-2.396 0-4.43-.86-6.097-2.608-1.663-1.75-2.497-4.204-2.497-7.334 0-3.099.837-5.584 2.516-7.517 1.678-1.933 3.872-2.915 6.581-2.915Zm5.161 8.53c-.132-1.412-.439-2.516-.917-3.375-.887-1.535-2.369-2.332-4.443-2.332-1.485 0-2.731.552-3.737 1.626-1.007 1.074-1.54 2.424-1.602 4.08h10.7ZM249.743 98.64c1.366 0 2.691.337 3.974.982 1.283.613 2.258 1.472 2.93 2.485.648.951 1.077 2.086 1.295 3.375.19.89.285 2.301.285 4.265h-14.11c.057 1.933.52 3.529 1.383 4.695.862 1.196 2.2 1.78 4.01 1.78 1.688 0 3.038-.553 4.044-1.688a5.546 5.546 0 0 0 1.222-2.24h3.181c-.082.706-.362 1.503-.834 2.363a9.264 9.264 0 0 1-1.593 2.147c-.981.952-2.197 1.596-3.648 1.933-.78.185-1.66.277-2.642.277-2.4 0-4.43-.86-6.097-2.608-1.666-1.75-2.497-4.204-2.497-7.334 0-3.099.837-5.584 2.516-7.517 1.678-1.933 3.872-2.915 6.581-2.915Zm5.158 8.53c-.132-1.412-.435-2.516-.914-3.375-.89-1.535-2.369-2.332-4.443-2.332-1.485 0-2.73.552-3.737 1.626-1.01 1.074-1.54 2.424-1.602 4.08h10.696ZM260.452 91.92h3.237v26.41h-3.237zM274.342 116.252c2.145 0 3.615-.828 4.413-2.455.798-1.595 1.196-3.405 1.196-5.4 0-1.81-.288-3.252-.865-4.388-.908-1.78-2.48-2.67-4.71-2.67-1.976 0-3.415.768-4.314 2.271-.899 1.504-1.347 3.345-1.347 5.462 0 2.056.448 3.774 1.347 5.124.9 1.381 2.326 2.056 4.28 2.056Zm.126-17.735c2.48 0 4.578.828 6.29 2.485 1.716 1.657 2.572 4.081 2.572 7.303 0 3.1-.755 5.676-2.265 7.702-1.51 2.025-3.854 3.037-7.03 3.037-2.647 0-4.752-.89-6.311-2.7-1.559-1.78-2.335-4.204-2.335-7.21 0-3.253.82-5.83 2.46-7.733 1.642-1.933 3.849-2.884 6.62-2.884ZM292.133 98.732c1.51 0 2.829.368 3.955 1.135.61.399 1.233 1.013 1.869 1.81v-2.424h2.985v17.52c0 2.455-.359 4.358-1.08 5.8-1.34 2.608-3.875 3.897-7.603 3.897-2.075 0-3.817-.46-5.232-1.381-1.414-.92-2.206-2.393-2.375-4.357h3.293c.153.859.466 1.534.932 1.994.734.706 1.884 1.074 3.452 1.074 2.483 0 4.106-.859 4.873-2.639.457-1.012.666-2.853.629-5.492-.648.982-1.424 1.688-2.335 2.179-.912.49-2.117.736-3.615.736-2.086 0-3.912-.767-5.474-2.24-1.565-1.473-2.347-3.927-2.347-7.333 0-3.222.789-5.738 2.366-7.548 1.574-1.81 3.476-2.731 5.707-2.731Zm5.824 9.88c0-2.363-.491-4.142-1.473-5.278-.982-1.166-2.237-1.749-3.759-1.749-2.277 0-3.835 1.074-4.673 3.222-.445 1.135-.666 2.608-.666 4.48 0 2.148.442 3.805 1.323 4.94.88 1.135 2.065 1.688 3.55 1.688 2.325 0 3.96-1.044 4.909-3.13.525-1.197.789-2.578.789-4.173ZM311.614 116.252c2.145 0 3.617-.828 4.415-2.455.795-1.595 1.194-3.405 1.194-5.4 0-1.81-.286-3.252-.862-4.388-.912-1.78-2.483-2.67-4.71-2.67-1.98 0-3.415.768-4.314 2.271-.9 1.504-1.35 3.345-1.35 5.462 0 2.056.45 3.774 1.35 5.124.899 1.381 2.322 2.056 4.277 2.056Zm.126-17.735c2.482 0 4.578.828 6.293 2.485 1.715 1.657 2.571 4.081 2.571 7.303 0 3.1-.755 5.676-2.264 7.702-1.513 2.025-3.854 3.037-7.03 3.037-2.651 0-4.753-.89-6.312-2.7-1.558-1.78-2.338-4.204-2.338-7.21 0-3.253.823-5.83 2.464-7.733 1.642-1.933 3.848-2.884 6.616-2.884ZM323.384 114.411h3.759v3.918h-3.759zM331 99.07h3.2v2.73c.767-.92 1.46-1.626 2.083-2.056 1.068-.736 2.28-1.104 3.633-1.104 1.535 0 2.768.399 3.704 1.135.528.43 1.006 1.074 1.439 1.902.718-1.012 1.565-1.78 2.534-2.27.97-.522 2.062-.767 3.271-.767 2.59 0 4.351.95 5.287 2.823.503 1.012.755 2.362.755 4.05v12.826h-3.363V104.96c0-1.29-.32-2.179-.96-2.64-.642-.49-1.424-.736-2.348-.736-1.27 0-2.362.43-3.28 1.289-.917.86-1.374 2.27-1.374 4.265v11.2h-3.293v-12.58c0-1.29-.153-2.24-.466-2.854-.491-.89-1.409-1.35-2.75-1.35-1.224 0-2.334.49-3.335 1.442-1 .92-1.503 2.639-1.503 5.124v10.218H331v-19.27ZM367.848 98.64c1.365 0 2.69.337 3.973.982 1.283.613 2.259 1.472 2.93 2.485.648.951 1.08 2.086 1.295 3.375.19.89.289 2.301.289 4.265H362.22c.062 1.933.522 3.529 1.384 4.695.865 1.196 2.2 1.78 4.01 1.78 1.691 0 3.038-.553 4.045-1.688a5.516 5.516 0 0 0 1.224-2.24h3.182c-.083.706-.362 1.503-.838 2.363a9.344 9.344 0 0 1-1.59 2.147c-.981.952-2.2 1.596-3.65 1.933-.78.185-1.66.277-2.643.277-2.396 0-4.427-.86-6.093-2.608-1.666-1.75-2.501-4.204-2.501-7.334 0-3.099.84-5.584 2.52-7.517 1.674-1.933 3.868-2.915 6.578-2.915Zm5.16 8.53c-.131-1.412-.438-2.516-.917-3.375-.887-1.535-2.369-2.332-4.44-2.332-1.488 0-2.734.552-3.74 1.626-1.006 1.074-1.54 2.424-1.602 4.08h10.7Z"/></g><path d="M52.342 1.958c-.763 4.1-1.877 5.609-8.333 11.306-2.68 2.364-3.733 3.944-4.79 7.188-.68 2.087-.795 2.976-.79 6.106.016 9.38 4.532 16.502 10.878 17.157.916.095 2.055.07 2.532-.055.808-.212.741-.264-.965-.748-2.668-.758-4.104-1.596-5.753-3.36-2.855-3.05-4.006-6.782-4.012-12.994-.007-6.677.79-8.5 5.934-13.575 2.641-2.607 3.78-3.971 4.385-5.255 1.02-2.163 1.495-4.324 1.372-6.244L52.706.003l-.364 1.955m13.06 2.497c-7.86 5.249-10.168 18.03-4.488 24.85l.762.917-.743-2.07c-2.033-5.658-1.42-13.447 1.496-18.996.529-1.007 1.885-2.759 3.012-3.892 1.128-1.134 2.002-2.06 1.943-2.06-.059 0-.951.562-1.982 1.251m4.4.385c-1.51.725-3.186 1.731-3.722 2.236-1.192 1.124-1.583 2.4-.935 3.05.41.409.556.409 1.337-.002.895-.471 6.774-6.62 6.318-6.61-.137.004-1.487.6-2.998 1.326m10.533-.42c-1.26.334-3.585 1.245-5.167 2.025-5.964 2.937-10.036 8.423-11.192 15.076-.637 3.667-.424 7.909.598 11.94.875 3.449 1.93 5.636 4.62 9.574 1.092 1.6 1.95 2.908 1.908 2.905-.043-.002-.95-.277-2.016-.61-4.553-1.428-7.819-1.138-15.617 1.387-6.387 2.067-6.893 2.194-10.288 2.577-6.798.766-11.387-1.363-13.792-6.402-.712-1.493-.8-2.037-.786-4.885.014-2.794.124-3.46.857-5.19.462-1.092.925-2.19 1.028-2.443.13-.317-.019-.276-.487.135-.371.326-1.184 1.624-1.807 2.884-1.118 2.26-1.133 2.341-1.133 5.971 0 3.415.063 3.818.884 5.595 1.165 2.523 4.024 5.244 6.47 6.16 2.768 1.035 4.43 1.284 7.887 1.18 1.777-.053 3.196-.023 3.154.067-.135.284-2.455 3.908-4.351 6.795-3.035 4.622-6.383 6.797-11.006 7.152-3.795.291-7.523-1.197-10.78-4.304l-1.96-1.868.842 1.374c2.558 4.173 6.661 6.414 11.732 6.407 6.352-.009 10.417-2.553 15.24-9.536 1.212-1.755 2.757-3.636 3.433-4.179 1.722-1.384 5.865-3.517 8.226-4.235 8.391-2.553 15.753.821 17.082 7.829.306 1.61-.033 4.484-.667 5.67-.291.543-.341.522-.699-.304-1.585-3.657-6.982-6.32-11.79-5.818-3.827.4-7.268 2.302-12.051 6.661-2.604 2.373-3.953 3.345-6.2 4.466l-2.873 1.434-4.608-.015c-3.591-.012-4.903-.13-5.952-.538-2.223-.863-1.806-.3.637.861 3.514 1.669 7.83 1.94 12.155.765 2.613-.71 3.699-1.395 9.075-5.718 3.505-2.82 5.335-3.849 8.1-4.557 3.61-.925 6.674-.124 8.888 2.327 1.435 1.589 1.72 2.351 1.72 4.6 0 2.217-.515 3.571-2.807 7.368-.982 1.626-2.186 3.824-2.678 4.885-1.17 2.53-1.94 6.453-1.788 9.13.066 1.16.007 2.11-.13 2.11-.598 0-3.55-1.716-5.395-3.135-2.266-1.744-5.265-3.22-8.42-4.146-6.357-1.866-11.81-1.679-20.281.697-6.755 1.894-9.8 2.074-13.218.782-3.075-1.161-6.673-4.435-8.27-7.522-.439-.85-.437-.97.022-1.43.885-.885.539-2.38-1.42-6.123L3.4 66.69v3.899c0 4.335.46 5.95 1.745 6.133.501.071.728.37.875 1.152.268 1.427 2.26 4.442 4.101 6.208 4.021 3.855 10.128 5.165 17.092 3.665 9.638-2.076 10.233-2.173 12.517-2.04 2.946.17 4.738.955 8.54 3.735l2.984 2.182-2.46.359c-1.812.264-3.223.73-5.37 1.775-2.483 1.208-3.32 1.826-5.681 4.201-3.2 3.218-4.512 5.485-6.56 11.333-2.3 6.566-4.307 9.453-7.746 11.146-1.695.835-2.205.938-4.636.939-6.215.003-10.792-3.241-13.126-9.3-.883-2.295-.962-1.86-.143.792 2.012 6.514 7.823 10.588 14.629 10.257 6.58-.32 10.37-4.075 13.77-13.645 1.674-4.711 5.169-9.367 8.723-11.622 3.373-2.14 8.647-2.85 12.91-1.738 4.354 1.136 9.388 4.56 12.24 8.327 1.628 2.152 1.878 2.751 1.005 2.412-1.436-.558-4.187-.827-6.945-.681-10.292.545-17.619 7.15-19.07 17.188-.89 6.156.197 11.028 3.15 14.114 2.563 2.679 5.309 3.345 9.072 2.202 1.934-.587 2.464-.919 4.092-2.558 1.595-1.606 2.063-2.353 3.188-5.088 1.808-4.395 2.38-5.484 3.493-6.667 1.719-1.826 4.998-3.053 7.103-2.658l1.117.21-.173 3.87c-.201 4.538-.898 7.509-2.62 11.185-3.074 6.559-7.602 11.097-14.42 14.452-3.607 1.775-6.825 2.664-10.808 2.983-2.703.217-2.73.226-1.636.607 2.105.732 5.744 1.142 8.61.972 2.522-.151 4.861-.732 7.68-1.906.593-.247.595-.237.06.374-.824.94-3.872 2.468-5.901 2.96-1.766.427-1.774.434-.57.481.672.027 1.496.102 1.832.165.336.064 1.94-.02 3.564-.185 4.415-.45 7.944-1.733 10.53-3.83.7-.568 1.336-1.032 1.413-1.032.356 0 .49 2.037.203 3.098-.452 1.68-1.882 3.162-4.057 4.206l-1.875.9 1.37-.164c4.773-.573 8.064-2.022 10.664-4.694l1.664-1.71.939 1.243c1.26 1.666 4.332 3.687 6.738 4.43 2.434.752 7.139 1.153 7.956.678.526-.305.502-.337-.249-.346-3.147-.035-7.414-3.376-8.328-6.52-.275-.945-.457-2.136-.404-2.645l.096-.926 1.527 1.11c2.062 1.5 5.927 3.304 8.706 4.065 4.282 1.172 9.928 1.367 13.885.48 1.191-.268 5.648-1.702 5.648-1.818 0-.05-1.487-.097-3.304-.105-1.818-.008-4.178-.173-5.246-.367-6.543-1.186-11.96-5.258-14.821-11.142-1.77-3.64-2.573-7.03-2.785-11.754l-.17-3.817.796-.737c.576-.534 1.241-.772 2.402-.86 2.506-.19 3.902.696 6.49 4.117 1.175 1.554 2.797 3.294 3.604 3.866 1.686 1.197 2.967 1.548 7.844 2.146 1.931.237 3.752.524 4.046.638.293.114.534.127.534.028 0-.442-2.717-1.49-5.675-2.189-5.518-1.304-6.278-1.817-9.296-6.28-1.184-1.75-2.255-2.943-3.202-3.57-1.612-1.068-4.264-1.727-6.008-1.493l-1.176.157.183-1.117c.1-.614.445-2.021.765-3.127 2.05-7.074 10.823-8.465 18.819-2.984.703.482 2.462 1.973 3.91 3.314 6.26 5.8 10.279 7.624 16.792 7.624 1.68 0 3.932-.207 5.006-.46 4.504-1.062 8.71-4.225 10.418-7.837 1.24-2.622 1.146-3.202-.16-.987-1.374 2.327-4.03 4.761-6.618 6.066-4.726 2.382-10.852 2.153-16.662-.623-1.834-.877-3.023-1.836-6.922-5.583-4.02-3.865-5.098-4.726-7.401-5.912-3.823-1.969-6.692-2.78-9.914-2.802-1.452-.01-2.575-.124-2.497-.253.08-.13.928-.632 1.887-1.116 5.569-2.812 12.989-3.337 19.01-1.347 2.392.79 4.044 1.694 9.778 5.347 8.295 5.284 18.01 4.449 24.795-2.132 3.838-3.72 6.633-9.637 6.587-13.937l-.016-1.539-.56 1.75c-.795 2.489-2.879 6.455-4.648 8.846-5.229 7.07-12.147 9.717-19.086 7.302-2.39-.832-3.262-1.351-9.866-5.873-4.819-3.299-9.833-5.036-15.5-5.37l-3.137-.184 1.462-.835c2.221-1.268 4.487-3.456 6.954-6.713 2.58-3.408 3.627-4.368 5.947-5.456 2.276-1.068 6.585-1.108 9.183-.086 2.103.828 4.057 2.464 4.937 4.133.924 1.753.913 4.758-.025 6.628-.387.773-.468 1.091-.189.743 2.078-2.59 2.41-5.901.892-8.875-1.129-2.211-3.733-4.316-6.363-5.143-2.432-.765-6.492-.732-8.773.072-3.116 1.097-4.671 2.329-7.892 6.251-2.812 3.425-4.534 4.772-8.539 6.677-8.47 4.028-8.274 3.913-10.523 6.167-3.138 3.145-4.708 6.133-6.2 11.795l-.28 1.068-.518-1.533c-.966-2.866-1.42-5.787-1.42-9.152-.001-3.947.54-6.553 1.88-9.068 1.387-2.603 2.902-4.181 7.26-7.564 2.13-1.653 4.536-3.739 5.348-4.635 2.36-2.609 4.734-6.504 6.088-9.994 1.25-3.22 1.267-3.245 3.166-4.497 3.857-2.544 9.527-3.72 15.29-3.17 9.8.933 20.03 5.244 25.095 10.574 3.18 3.348 4.536 6.383 4.58 10.255l.024 2.223.578-1.22c.712-1.506.78-4.609.145-6.744-1.492-5.024-6.701-10.155-13.5-13.298-10.47-4.84-21.618-6.03-30.076-3.21l-2.963.987 1.13-2.101c4.463-8.29 13.01-12.555 21.536-10.749 3.594.762 6.099 2.214 7.614 4.414.814 1.182.872.59.105-1.063-.856-1.843-2.572-3.442-4.849-4.52-2.548-1.205-4.503-1.52-8.305-1.34-3.817.182-6.94 1.043-10.216 2.817-1.08.585-2.004 1.022-2.054.971-.051-.05.626-1.182 1.504-2.514 3.096-4.695 6.974-7.675 11.558-8.882 2.883-.76 7.558-.676 9.784.176 3.263 1.246 5.337 4.098 6.066 8.344.6 3.481-.332 7.132-2.762 10.828l-.96 1.46 1.53-1.604c6.25-6.549 4.922-17.36-2.564-20.881-2.526-1.188-4.91-1.573-8.69-1.402-7.007.317-12.509 3.891-17.289 11.233-2.6 3.995-5.64 8.227-5.907 8.227-.11 0-.444-.79-.743-1.756-.903-2.92-2.467-5.35-5.682-8.825-4.567-4.937-6.138-8.664-5.64-13.385.545-5.179 2.817-9.517 7.22-13.786 4.935-4.785 11.172-7.138 17.778-6.705 5.208.341 9.665 1.724 13.927 4.319l2.29 1.394-1.375-1.214c-2.912-2.575-7.674-4.86-11.886-5.704-3.485-.698-9.057-.477-12.08.479-6.071 1.92-11.06 5.705-14.608 11.083-2.845 4.31-3.938 7.585-3.946 11.813-.007 4.646 1.455 8.421 4.967 12.823 3.649 4.572 4.693 7.539 4.678 13.28-.018 6.249-1.62 10.561-5.275 14.196-2.001 1.99-4.856 3.675-6.977 4.12l-1.012.212 2.16-2.853c2.502-3.302 5.218-8.565 6.121-11.859 2.006-7.317.564-13.834-4.094-18.499-1.816-1.818-2.736-2.445-5.736-3.906-4.141-2.017-5.841-3.489-7.112-6.155-.74-1.55-.887-2.299-1.007-5.11-.077-1.81-.213-3.22-.3-3.133-.09.089-.331 1.067-.54 2.176-1.119 5.954 1.6 10.928 7.712 14.108 6.23 3.24 8.948 7.32 8.937 13.411-.01 6.199-2.088 11.11-7.656 18.099-5 6.277-6.361 8.672-7.196 12.663-.245 1.171-.503 2.189-.575 2.26-.228.227-1.572-3.106-1.93-4.787-.19-.89-.345-2.832-.345-4.316 0-3.444.837-6.403 3.479-12.3 2.723-6.08 3.069-7.466 3.066-12.296-.002-3.64-.08-4.185-.931-6.593-1.266-3.574-2.595-5.853-6.419-11.002-5.236-7.05-6.83-11.154-6.825-17.574.005-7.997 3.175-14.111 9-17.356 4.425-2.465 10.46-3.51 16.659-2.884 2.024.204 3.748.304 3.83.222.082-.082-.99-.466-2.383-.852-3.626-1.005-9.848-1.144-13.065-.291m18.623 2.026c-4.772 1.556-6.411 2.613-6.411 4.135 0 .66.176.897.783 1.049.43.108 1.032.076 1.338-.07.686-.33 6.304-5.62 5.932-5.586-.147.013-.886.226-1.642.472M79.772 7.803c-.394.158-.785.551-.87.875-.089.34-.329.521-.57.43-.603-.232-3.486 1.167-4.822 2.34-1.064.935-2.945 3.369-2.945 3.812 0 .106.75-.467 1.664-1.274.916-.807 2.78-2.105 4.144-2.885 2.23-1.275 2.568-1.383 3.367-1.082.661.25 1.335.236 2.649-.056.97-.215 2.552-.55 3.518-.745.965-.194 1.755-.437 1.755-.54 0-.101-.947-.413-2.104-.693-2.303-.555-4.668-.63-5.786-.182M56.827 8.876c-2.735 1.554-4.895 4.452-4.424 5.937.358 1.127 1.056.606 2.16-1.611.607-1.218 1.737-2.866 2.512-3.664.774-.798 1.345-1.449 1.267-1.446-.077.002-.76.355-1.515.784m43.409 1.379c-3.845.654-7.555 3.499-9.228 7.075-.972 2.078-1.816 5.477-1.798 7.244.009.838.174.517.766-1.486 1.118-3.784 2.198-5.78 4.246-7.852 2.126-2.151 4.675-3.495 8.288-4.368 1.537-.371 2.071-.593 1.485-.616-.503-.02-1.19-.089-1.526-.155-.336-.065-1.34.006-2.233.158m-36.003.972c-1.456 1.59-2.672 5.083-2.947 8.462-.145 1.792-.13 1.866.158.763.795-3.052 1.646-5.358 2.727-7.395 1.18-2.224 1.21-3.083.062-1.83M50.263 12.7c-3.976 3.21-5.648 5.393-5.648 7.373 0 1.248.461 1.752 1.602 1.752 1.382 0 2.182-1.12 3.394-4.76.614-1.843 1.464-3.861 1.888-4.485.985-1.45.67-1.42-1.236.12m39.451.3c-2.935 3.046-4.53 7.989-3.883 12.038.32 1.998 1.239 4.784 1.861 5.64.268.37.29.34.113-.152-.413-1.145-.535-8.491-.17-10.248.481-2.32 1.815-5.034 3.337-6.793.698-.806 1.27-1.595 1.27-1.753 0-.73-1.164-.146-2.528 1.268m-52.38 1.422c-4.939 4.876-6.21 11.496-3.362 17.516.896 1.895 2.942 4.712 3.22 4.434.078-.078-.202-.67-.623-1.315-1.761-2.698-2.814-8.051-2.33-11.858.457-3.61 1.356-5.651 3.864-8.777.91-1.134 1.579-2.061 1.486-2.061-.092 0-1.107.927-2.255 2.06m38.953-.637c-.673.28-1.219.746-1.32 1.13-.095.359-.685 1.01-1.313 1.448-3.442 2.4-5.301 8.465-4.193 13.677.44 2.068 2.177 6.393 2.452 6.104.064-.067-.152-1.152-.479-2.411-1.648-6.349-.74-11.827 2.629-15.86.836-1 1.34-1.335 2.085-1.382.54-.034 1.537-.348 2.217-.697.68-.348 1.778-.731 2.442-.85 2.035-.367 2.124-.608.429-1.155-1.941-.627-3.443-.628-4.949-.004m26.52.263c-2.293.63-5.057 2.112-6.803 3.648-1.442 1.268-4.068 4.742-4.068 5.38 0 .146.87-.604 1.931-1.666 3.249-3.248 7.714-5.898 12.138-7.202l1.96-.578-1.833.004c-1.007.002-2.503.188-3.325.414m-20.026 2.664c-2.993 5.187-2.724 11.502.656 15.351 1.124 1.28 3.073 2.357 4.02 2.222.583-.083.527-.175-.464-.76-1.511-.894-3.133-3.174-3.976-5.593-.988-2.835-.928-7.163.146-10.456.424-1.301.72-2.366.657-2.366-.063 0-.53.721-1.04 1.602m-28.106 1.74c-.542 1.783-.641 2.733-.541 5.146.107 2.573.258 3.252 1.157 5.191.878 1.895 1.608 2.807 2.25 2.807.078 0-.393-1.551-1.047-3.447-1.336-3.872-1.727-6.942-1.25-9.834.165-1.007.254-1.88.198-1.94-.057-.06-.402.875-.767 2.077m-17.84.815c-1.131 3.887-1.39 8.34-.667 11.413.835 3.548.996 2.908.976-3.89-.01-3.654.075-7.192.19-7.864.308-1.81.08-1.655-.5.34m40.412-.416c-2.912 2.381-4.574 6.593-4.511 11.432.034 2.618-.06 2.777 1.21-2.045.793-3.012 2.984-7.45 4.567-9.247 1.62-1.84.91-1.92-1.266-.14m-26.569-.009c-1.959 2.646-3.009 5.418-3.006 7.936.002 1.513.027 1.566.4.85.22-.42.896-1.486 1.503-2.369.824-1.197 1.156-2.052 1.306-3.358.11-.964.322-2.226.47-2.804.36-1.398.215-1.454-.673-.255m60.646-.202c-3.373.66-7.852 3.043-10.671 5.676-2.306 2.153-4.156 4.542-5.164 6.67-.279.588-.333.808-.12.489 1.348-2.027 4.181-5.248 5.665-6.443 3.559-2.865 8.327-4.7 13.548-5.215l2.039-.201 1.168 1.22c1.048 1.096 1.403 1.26 3.457 1.594 1.26.206 3.379.635 4.708.953 1.33.318 2.462.535 2.514.483.053-.053-1.483-1.146-3.413-2.43-3.835-2.552-5.576-3.233-6.952-2.718-.642.24-1.112.21-1.898-.118-1.247-.521-2.053-.514-4.88.04m-81.397 1.739c-1.642 1.018-2.816 2.094-4.05 3.711-1.803 2.362-1.393 5.064.77 5.064 1.404 0 1.823-.62 2.102-3.11.3-2.678.914-4.329 2.05-5.514.973-1.017.62-1.078-.872-.151m14.427 2.288c-.386.728-1.288 3.817-1.154 3.952.088.087 1.196-2.26 1.939-4.105.236-.588-.464-.452-.785.153m68.343-.32c-.42.078-.872.246-1.005.374-.133.127 2.271 1.081 5.343 2.12 7.245 2.453 6.99 2.386 6.042 1.572-3.196-2.747-7.8-4.551-10.38-4.067M51.518 25.36c-.888 2.816-1.094 4.733-.629 5.854.812 1.956 2.885.9 2.885-1.47 0-.607-.387-2.223-.861-3.59l-.862-2.487-.533 1.693m54.836-.723c-4.852.72-9.434 5.532-10.552 11.08-.148.736-.068.661.403-.377.877-1.931 2.798-4.628 4.472-6.278 2.581-2.544 6.76-4.115 9.882-3.715 1.086.139 1.26.104.832-.166-.861-.542-3.285-.804-5.037-.544m15.369 4.07c-6.72 1.698-11.787 6.74-13.303 13.234-.402 1.718-.266 4.798.27 6.14.27.679.306.607.323-.645.034-2.47.592-4.628 1.869-7.224 2.11-4.293 5.874-7.505 10.668-9.1 2.209-.736 7.02-.748 9.77-.025 4.416 1.161 10.395 4.867 13.179 8.168.697.826 1.327 1.443 1.4 1.37.073-.073-.325-1.001-.885-2.063-2.158-4.087-6.891-7.702-12.321-9.41-2.808-.882-8.35-1.108-10.97-.445m-43.206.774c-.016 1.256.827 3.946 1.236 3.946.39 0 .36-.18-.477-2.747-.642-1.972-.747-2.139-.76-1.2m25.617-.53c-1.814.5-3.295 1.446-4.336 2.767-1.026 1.305-1.067 1.625-.128 1.01 1.42-.93 3.927-1.437 7.118-1.437 3.264 0 5.688-.602 7.133-1.773.617-.5.58-.516-1.132-.516-.974 0-3.007-.098-4.519-.217-1.887-.15-3.182-.097-4.136.166m-58.756 1.196c-2.376 2.044-.34 7.635 3.732 10.248 1.819 1.167 2.087 1.209 1.441.222-.796-1.214-1.359-3.476-1.67-6.709-.235-2.441-.421-3.169-.958-3.74-.836-.89-1.528-.896-2.545-.02M17.81 31.35c-.925 2.473-1.226 3.83-1.442 6.504-.522 6.453 2.545 12.084 7.4 13.583 2.015.623 3.594.729 4.972.333.632-.18.483-.257-.865-.441-5.462-.746-9.04-4.236-10.14-9.889-.451-2.323-.232-7.478.419-9.844.6-2.184.428-2.308-.344-.246m5.152-.782c-.756.96-.83 2.713-.182 4.265.675 1.613 1.605 1.345 2.678-.773.462-.912.84-2.036.84-2.497 0-1.824-2.174-2.472-3.336-.995M56.07 32.81c-.894.988-.447 2.673 1.07 4.037 1.084.973 6.13 3.301 7.15 3.298.16 0-.131-.447-.646-.993-.514-.546-1.634-2.043-2.49-3.327-2.337-3.508-3.834-4.396-5.084-3.015m-4.223-.101c-.52.52-.17 3.09.658 4.843 1.673 3.534 5.274 5.538 8.596 4.782l1.069-.243-1.455-.205c-3.77-.532-6.39-3.077-7.557-7.342-.484-1.768-.856-2.29-1.31-1.835m71.351.847c-3.783.863-7.739 3.537-10.333 6.983-.933 1.24-1.697 2.31-1.698 2.38-.001.069 1.146-.974 2.55-2.317 2.795-2.677 5.69-4.42 8.596-5.178 5.038-1.312 11.757.16 17.29 3.787l1.943 1.273-1.68-1.569c-4.725-4.416-11.4-6.562-16.668-5.36m-43.915 1.162c-1.06 1.514-.338 4.042 1.674 5.86 1.21 1.093 6.32 3.716 6.632 3.404.097-.097-.111-.485-.463-.862-.352-.377-1.41-2.126-2.352-3.887-2.567-4.798-4.297-6.22-5.491-4.515m23.525.06c-1.518.561-3.368 2.37-4.234 4.137-.533 1.088-.674 1.902-.663 3.825.016 2.879.858 5.064 2.766 7.184 1.3 1.445 3.973 3.654 4.42 3.654.156 0-.481-.928-1.418-2.06-.936-1.134-2.141-2.952-2.678-4.04-.835-1.693-.976-2.307-.976-4.274 0-2.978.837-4.794 2.855-6.195 1.281-.89 1.635-.986 3.632-.986 1.217 0 2.213-.11 2.214-.244 0-.375-1.997-1.125-3.44-1.292-.743-.085-1.795.038-2.478.29M13.652 36.77c-1.365 6.003-.006 11.834 3.594 15.424 2.117 2.11 3.974 2.968 6.718 3.105l2.181.11-2.18-.718c-2.77-.91-3.914-1.625-5.803-3.626-2.95-3.123-4.315-7.705-3.955-13.275.112-1.727.141-3.14.066-3.14-.076 0-.355.954-.62 2.12m6.415.557c-.413 5.45 1.556 9.17 5.612 10.6.728.257 1.391.4 1.473.318.083-.082-.412-.76-1.098-1.504-1.702-1.846-5.253-9.493-5.253-11.311 0-.242-.12-.513-.266-.604-.146-.09-.357 1.035-.468 2.501m12.352-2.263c-.048.773 1.978 4.241 3.035 5.196 1.44 1.301 3.11 1.532 3.66.506.372-.695-.254-1.212-2.227-1.838-1.164-.37-2.995-1.929-3.946-3.363-.278-.42-.514-.645-.522-.501m91.928 1.905c-.893.625-.763 1.675.27 2.168.568.272 1.877.31 4.884.144l4.107-.228-1.221-.545c-2.124-.947-5.57-2.027-6.474-2.027-.478 0-1.183.22-1.566.488M30.13 38.236c.099.461.617 1.727 1.15 2.813 1.117 2.27 2.55 3.45 4.012 3.307 1.499-.147 1.353-1.006-.349-2.042-2.25-1.37-3.43-2.45-4.088-3.741-.706-1.383-.977-1.51-.725-.337m72.644-.502c-1.101.636-1.666 1.61-1.663 2.868.007 2.825 2.99 3.924 5.052 1.862 1.276-1.276 1.407-2.773.35-4.001-.786-.914-2.754-1.298-3.739-.73m16.916.85c-2.04.8-4.02 2.255-5.683 4.182-1.952 2.261-2.3 2.955-.84 1.678 2.045-1.788 5.598-3.946 7.951-4.827 1.241-.466 2.258-1.018 2.26-1.228.005-.56-2.032-.452-3.688.196M9.88 40.474c-1.434 7.691 1.64 14.714 7.763 17.728 1.74.857 2.422 1.015 4.806 1.116 3.66.155 5.62-.535 7.631-2.685 1.684-1.8 1.869-2.61.277-1.212-5.393 4.736-14.14 2.061-17.94-5.487-1.394-2.768-1.741-4.197-1.968-8.111l-.194-3.358-.375 2.01M38.31 43.64c-1.209.526-1.543 1.472-.878 2.486.625.954 1.631 1.345 3.461 1.345 1.69 0 6.165-.669 6.165-.921 0-.285-4.929-2.664-6.259-3.022-1.471-.395-1.308-.402-2.49.112m103.39.754c0 .417 3.897 3.988 5.326 4.88 1.758 1.1 3.458 1.254 4.244.386 1.132-1.251.304-2.823-1.861-3.529-2.195-.715-7.709-1.958-7.709-1.737m-38.282.507c-.542 1.413.351 3.672 2.28 5.764.708.769 1.338 1.348 1.4 1.286.061-.062-.08-.58-.313-1.151-.234-.572-.588-1.991-.786-3.155-.198-1.163-.494-2.365-.658-2.671-.366-.683-1.67-.733-1.923-.073m24.697 1.322c-.895.203-.886.213.407.43 2.175.366 4.039 1.537 6.526 4.1 2.933 3.02 3.673 3.647 2.795 2.366-.345-.504-1.083-1.78-1.64-2.835-1.908-3.622-4.429-4.887-8.088-4.06M6.196 49.225c.377 3.194.857 4.86 1.644 5.709.876.946 1.783.998 2.386.138.613-.875.21-1.921-1.515-3.943-.756-.885-1.644-2.14-1.974-2.787-.33-.648-.642-1.177-.693-1.177-.05 0 .018.927.152 2.06m117.033-1.002c-1.175.424-2.171.771-2.214.772-.042 0-.076.104-.076.23s.585.264 1.298.305c.713.042 2.225.297 3.358.568 2.349.56 3.456.404 3.751-.528.306-.963-.665-1.731-2.454-1.94-1.186-.138-2.003-.006-3.663.593m28.85 1.052c0 .194.653.626 1.45.959.798.332 1.966.886 2.595 1.23 1.615.88 1.422.509-.482-.928-1.663-1.256-3.563-1.929-3.563-1.261m-71.24 1.248c3.34 4.878 4.33 9.85 3.007 15.112-.546 2.169-1.972 5.362-2.83 6.335-.259.294-.346.53-.194.524.51-.018 3.261-3.785 4.157-5.69.488-1.037 1.038-2.798 1.223-3.915.752-4.536-1.333-9.809-5.034-12.736l-1.27-1.004.94 1.374m3.584.916c2.767 4.278 3.545 6.552 3.545 10.357 0 4.142-1.23 7.451-4.263 11.456-.845 1.118-1.537 2.097-1.537 2.176 0 .453 1.733-1.124 3.184-2.898 5.361-6.553 5.413-14.747.128-20.243-.853-.886-1.328-1.268-1.057-.848m60.2.033c1.156 1.292 2.975 2.153 6.486 3.07 1.962.513 4.116 1.197 4.787 1.521l1.222.589-1.203-1.086c-1.663-1.501-3.87-2.509-6.657-3.038-1.3-.247-3.007-.733-3.793-1.08l-1.428-.632.587.656M59.047 53.08c-2.617.666-5.493 2.27-7.59 4.232-2.06 1.927-2.438 2.697-.658 1.338 1.619-1.234 5.338-2.82 7.976-3.401 3.054-.673 7.257-.498 9.577.398.881.34 1.603.507 1.603.37 0-.435-1.937-1.905-3.321-2.52-1.704-.757-5.443-.963-7.587-.417M4.243 55.714c-.755 7.835 4.494 14.747 11.542 15.2 2.421.155 4.604-.396 5.933-1.497.547-.453.605-.58.203-.45-1.363.44-3.954.532-5.833.205-2.821-.491-5.064-1.555-6.903-3.276-2.627-2.456-3.738-4.852-4.37-9.419l-.381-2.748-.191 1.985m141.605-.635c1.017 1.743 3.303 3.792 5.953 5.336 1.413.823 3.014 1.826 3.56 2.23 1.261.93 1.305.39.117-1.452-1.339-2.078-2.45-2.951-5.253-4.128-1.415-.594-3.11-1.509-3.767-2.033l-1.193-.952.583 1m-108.32.49c-.456.252-1.179 1.054-1.606 1.783-.722 1.233-2.403 5.688-2.146 5.688.063 0 1.509-1.35 3.213-3 2.716-2.63 3.085-3.11 2.996-3.892-.08-.698-.269-.909-.865-.964-.42-.04-1.136.134-1.592.386m-27.41.648c0 .652 2.046 2.6 3.386 3.222.572.265 1.52.574 2.108.684.997.189.958.14-.573-.725-.903-.51-2.305-1.548-3.116-2.307-1.63-1.525-1.806-1.61-1.806-.874m133.153.7c.395.747 2.719 3.426 5.163 5.953 2.444 2.528 4.865 5.145 5.38 5.817 1.082 1.415 2.54 4.2 2.54 4.857 0 .247.114.52.253.606.44.271-.202-3.31-.873-4.877-1.068-2.493-2.822-4.485-6.64-7.541-1.997-1.6-4.286-3.643-5.087-4.54l-1.455-1.633.719 1.358m-22.087-.31c-2.968.949-6.294 3.295-7.931 5.593l-.678.953 1.45-.999c2.185-1.502 5.92-3.281 8.028-3.823 3.71-.953 6.854-.471 9.853 1.51l1.655 1.094-.765-1.009c-.42-.555-1.419-1.454-2.219-1.998-2.8-1.905-6.112-2.37-9.393-1.321m-73.195 2.363c-1.426 2.763-4.095 5.55-6.65 6.945l-2.065 1.126 1.462-.19c4.116-.534 7.316-3.433 8.167-7.399.54-2.52.224-2.687-.914-.482M9.034 60.747c1.61 3.643 3.562 5.348 6.972 6.094.966.212 3.88-.107 3.88-.423 0-.115-.693-.386-1.542-.604-1.78-.456-6.346-3.352-8.58-5.443l-1.528-1.43.798 1.806m20.775-.802c-.336.11-1.358.593-2.27 1.072a9.71 9.71 0 0 1-3.48 1.036l-1.82.165 1.15.59c2.418 1.241 5.937.985 7.78-.565 1.105-.93 1.167-1.443.25-2.085-.732-.513-.709-.51-1.61-.213m93.37.33c-.363.156-.744.55-.847.874-.138.436-.685.692-2.088.98-2.258.461-3.164 1.044-1.137.73.756-.116 1.702-.333 2.103-.481.577-.213.82-.14 1.162.35.332.474.773.618 1.887.618 1.656 0 4.564-.77 5.191-1.374 1.014-.976-4.49-2.467-6.27-1.698m19.987 2c.366.463 2.443 2.748 4.618 5.077 4.161 4.457 5.828 7.069 6.404 10.039.225 1.165.275 1.235.329.458.225-3.277-.846-6.149-3.258-8.733-1.775-1.901-9.034-8.039-8.093-6.842m-85.544 1.648c-.41.161.041.338 1.552.608 2.65.474 4.84 1.47 6.472 2.945 1.494 1.349 1.667.827.329-.992-1.307-1.778-3.541-2.837-5.927-2.81-1.016.013-2.108.125-2.426.25m98.629.238c-.574.574-.138 2.78.982 4.964.652 1.272 1.441 3.129 1.753 4.126l.567 1.814.214-1.203c.118-.662.222-2.453.231-3.982.026-4.141-.747-5.922-2.573-5.922-.534 0-1.063.091-1.174.203M53.855 66.476c-1.303 1.334-2.087 2.832-1.631 3.114.142.088.438-.276.659-.807.22-.532.853-1.56 1.407-2.286.554-.725.967-1.319.92-1.319-.048 0-.658.584-1.355 1.298m85.707-1.189c0 .056 1.162.812 2.582 1.68 3.327 2.032 5.82 4.358 7.29 6.799.645 1.07 1.078 1.601.964 1.181-.746-2.746-3.022-5.642-5.689-7.237-1.594-.954-5.147-2.626-5.147-2.423M58.098 66.54c.111.117.66.456 1.221.754 1.503.798 2.393 2.275 2.393 3.97 0 1.424-.168 1.84-2.233 5.536-1.411 2.526-1.867 4.75-1.416 6.917.449 2.162.744 2.212.77.129.026-2.053.75-3.815 2.946-7.165 1.274-1.944 1.591-2.694 1.702-4.031.075-.904.05-1.982-.053-2.397-.245-.977-1.57-2.543-2.592-3.065-.912-.466-3.046-.97-2.738-.648m-2.47 2.8c-.876 1.115-.793 2.135.26 3.189 1.006 1.006 1.508 1.087 2.749.445.966-.5 1.243-1.018 1.243-2.326 0-2.054-2.95-2.961-4.252-1.307m63.853.587c-.844.59-.865 1.346-.06 2.21.954 1.024 1.93 1.128 3.495.371.76-.368 1.381-.773 1.381-.9 0-.436-1.181-1.3-2.345-1.714-1.505-.537-1.661-.535-2.471.033m-4.357.245c-1.867.503-3.284 1.42-4.95 3.203-1.23 1.313-2.668 3.586-2.668 4.214 0 .124.42-.345.933-1.042.982-1.337 3.961-3.73 5.776-4.64.592-.298 1.797-.71 2.679-.918 1.719-.405 2.018-.745.916-1.04-.883-.236-1.025-.225-2.686.223m-107.137.195c-.001.698 1.356 3.456 1.936 3.936.806.666.938.162.222-.844A32.7 32.7 0 0 1 8.74 71.23c-.414-.725-.754-1.113-.754-.86m39.09.835c-1.306 1.585-1.973 3.455-1.718 4.816.25 1.33 1.136 2.286 2.121 2.286.9 0 1.121-.707.776-2.491-.35-1.812-.343-4.026.015-4.97.43-1.128-.098-.97-1.193.359m3.508-.157c-.603.86-.611 2.985-.017 4.406.578 1.383 3.046 4.863 3.6 5.076.35.135.352-.087.01-1.404-.222-.86-.405-2.705-.405-4.101 0-3.3-.524-4.656-1.799-4.656-.598 0-1.078.234-1.389.679m77.986 1.292c.42.454 1.518 2.075 2.442 3.603.923 1.528 2.04 3.043 2.482 3.366 1.477 1.083 2.772-.1 2.275-2.078-.436-1.738-4.192-4.602-7.2-5.491l-.763-.225.764.825m-105.022.17c-2.755.377-5.047 1.592-6.146 3.259-.672 1.018-.753 2.708-.141 2.943.483.185.946-.267 2.461-2.398 1.205-1.695 3.125-3.095 4.628-3.377.57-.107 1.112-.317 1.204-.465.092-.15.056-.253-.08-.231-.136.022-1.002.143-1.926.27m113.519 2.743c1.982 3.707 2.645 6.292 2.624 10.227-.013 2.343-.17 3.75-.52 4.656-.665 1.726-.409 1.648.5-.153 1.598-3.16 1.763-7.149.444-10.7-.758-2.043-2.268-4.48-3.44-5.557-.775-.71-.748-.604.392 1.527M27.366 74.167c-2.637.847-5.113 2.086-5.94 2.973-.624.67-.787 1.606-.438 2.515.252.657 1.89.62 2.933-.068 1.114-.735 6.372-6.174 5.931-6.136-.192.017-1.31.34-2.486.716m87.319-.296c-1.219.444-1.989 1.17-1.989 1.873 0 1.542 1.296 2.147 3.138 1.465.709-.263 2.182-.802 3.273-1.2 1.092-.396 1.81-.728 1.597-.738-.214-.01-.9-.353-1.527-.761-1.497-.977-2.984-1.188-4.492-.639m-81.365.067c-.573.205-1.222 1.004-1.222 1.504 0 1.373 2.373 1.682 6.824.889 2.722-.485 3.085-.667 1.837-.922-.482-.098-2.07-.516-3.53-.93-2.72-.77-3.114-.825-3.91-.54m90.106.27c-1.774.746-1.11 2.604 1.115 3.123.622.146 2.024.48 3.116.743 1.091.263 2.038.426 2.104.361.27-.262-1.432-2.324-2.715-3.287-1.698-1.274-2.395-1.455-3.62-.94M10.632 75.673c-.228.594.306 2.776 1.023 4.181 1.066 2.09 3.109 1.994 3.29-.152.117-1.383-.445-2.314-2.137-3.54-1.383-1.001-1.932-1.125-2.176-.489m131.06 1.412c1.352 2.972 1.943 5.606 1.95 8.7.012 4.461-1.36 7.32-4.979 10.378-.992.838-1.761 1.565-1.71 1.616.05.051 1.002-.271 2.114-.716 5.147-2.06 7.863-7.5 6.628-13.274-.48-2.239-2.277-5.807-3.726-7.395l-1.18-1.294.902 1.985m-61.35-.923c-.707.708-1.101 1.578-1.686 3.72l-.388 1.425 1.873-2.002c1.298-1.388 1.874-2.247 1.874-2.795 0-1.024-.825-1.196-1.672-.348m-49.723.318c-.393.328-1.236.737-1.872.908-1.256.338-2.007 1.01-1.694 1.515.606.981 3.056-.343 3.996-2.16.534-1.033.511-1.047-.43-.263m79.784.7c-.96.96-1.854 3.194-1.589 3.972.067.198.405-.19.75-.862.346-.672 1.055-1.755 1.576-2.408 1.546-1.94 1.011-2.45-.737-.703M1.89 76.5c-.047.57 1.437 4.432 2.464 6.413 2.38 4.59 6.04 8.21 10.496 10.378 3.388 1.648 6.418 2.219 10.825 2.04 3.723-.152 5.911-.748 8.332-2.27 1.276-.8 1.548-1.51.458-1.192-4.855 1.413-5.338 1.49-9.54 1.513-3.564.02-4.67-.09-6.655-.66-6.979-2.004-11.466-6.062-15.04-13.603C2.5 77.58 1.897 76.402 1.89 76.5m41.185 1.977c-.575.692-.015 2.04.994 2.394 1.593.56 2.491-1.414 1.09-2.395-.863-.605-1.582-.605-2.084 0m71.59.406c-1.506.683-3.388 2.808-3.799 4.289-.166.598-.302 1.638-.301 2.31l.001 1.22.722-1.526c1.433-3.032 4.433-4.758 8.654-4.981 2.739-.144 2.903-.386.884-1.303-1.656-.752-4.517-.756-6.161-.01m-81.65.043c-2.908.341-4.379.808-5.16 1.64-.563.6-.63.852-.362 1.356.74 1.383 2.103 1.158 6.236-1.029 1.37-.725 3.041-1.423 3.713-1.55 1.12-.211 1.158-.248.458-.45-.955-.274-2.343-.265-4.885.033m14.654.38c0 .702 1.866 2.67 3.16 3.333.865.444 1.993.684 3.557.758 2.53.12 2.619.22-1.371-1.548-1.174-.52-2.721-1.393-3.438-1.938-1.394-1.063-1.908-1.225-1.908-.604m82.43.063c0 .46 1.404.994 1.737.66.3-.3-.548-1.112-1.164-1.112-.315 0-.573.204-.573.452m16.595 1.546c2.81 5.744 2.151 10.835-1.877 14.516-1.978 1.808-1.686 1.926.74.298 2.978-1.997 4.605-5.123 4.287-8.231-.176-1.727-1.965-5.735-3.283-7.36-.524-.645-.503-.524.133.777m-41.01.007c.163.43.297 1.667.297 2.747 0 1.565.126 2.09.617 2.582.481.481.747.549 1.2.306 1.376-.736 1.127-2.676-.628-4.897-1.324-1.674-1.964-1.992-1.487-.738m17.852-.58c-.93.246-1.21.632-.808 1.117.247.296 1.303.476 3.402.577 2.588.124 3.319.282 4.88 1.057 1.01.5 1.838.798 1.838.66 0-.461-2.885-2.373-4.274-2.833-1.575-.52-4.141-.815-5.038-.578m11.124.732c-.736.736-.637 1.553.504 4.132.4.904.893 2.297 1.096 3.096l.37 1.453.396-1.355c1.01-3.458.773-6.962-.52-7.653-.817-.438-1.138-.38-1.846.327m-117.009.475c.256.391 1.213 1.076 2.126 1.523 1.382.677 1.919.782 3.205.63 1.642-.195 3.329-1.001 3.563-1.705.111-.333-.081-.379-.891-.213-3.055.628-4.689.58-6.595-.19l-1.874-.756.466.711m137.178.306c0 .16.407 1.592.904 3.18.954 3.049 2.313 5.528 3.326 6.07.46.246.045-.85-1.692-4.48-2.363-4.94-2.538-5.27-2.538-4.77m-140.741.389c0 .536 2.14 2.14 3.274 2.456 1.885.523 2.165.352.643-.395-.785-.385-1.909-1.067-2.499-1.517-1.145-.874-1.418-.978-1.418-.544m102.426 1.083c-1.462.709-3.277 1.98-2.847 1.995.113.003 1.235-.406 2.494-.91 1.258-.503 2.539-.921 2.847-.929.307-.008.971-.202 1.475-.433.911-.417.908-.42-.763-.441-1.188-.016-2.126.194-3.206.718m-14.628 1.572c-.483 1.056-1.618 2.57-2.973 3.969-1.206 1.243-2.092 2.36-1.97 2.483.379.379 4.143-1.775 4.949-2.832.582-.763.805-1.51.944-3.163.1-1.19.103-2.165.007-2.165-.096 0-.527.769-.957 1.708M.074 86.21c.362 4.21 2.453 8.287 5.962 11.629 3.928 3.74 8.26 5.5 13.53 5.5 6.115 0 11.81-2.956 14.205-7.375l.884-1.63-1.05 1.081c-5.43 5.598-12.26 7.294-19.575 4.861-4.329-1.44-8.695-4.904-11.035-8.757-1.129-1.857-2.647-5.78-2.647-6.837 0-.297-.108-.606-.238-.687-.131-.08-.147.916-.036 2.215m2.869-.882c.13.42.802 1.93 1.492 3.358 1.6 3.31 4.166 6.106 5.6 6.106.689 0 1.011-.172 1.15-.61.333-1.048-.137-1.803-1.93-3.104-2.222-1.61-3.785-3.076-5.322-4.987-.874-1.087-1.16-1.307-.99-.763m101.791 3.456a92.63 92.63 0 0 1-3.278 2.895c-1.412 1.173-1.582 1.443-1.582 2.508 0 .877.16 1.28.604 1.517 1.92 1.028 4.21-1.634 5.642-6.563.279-.958.462-1.786.408-1.84-.054-.054-.86.613-1.794 1.483m-92.175-.56c0 .295 3.56 1.933 5.496 2.527 2.957.909 5.337 1.092 8.268.638l2.57-.398-3.816-.215c-3.616-.203-9.947-1.51-11.601-2.395-.627-.335-.917-.385-.917-.157m24.83 1.341c-1.793.839-2.37 1.997-1.453 2.915.677.677 2.005.597 4.033-.244.96-.399 2.502-.903 3.425-1.121l1.68-.397-1.68-.767c-2.23-1.02-4.357-1.156-6.005-.386m86.951.47c1.762.952 3.374 2.807 4.594 5.284.795 1.615.915 2.154.796 3.588-.138 1.661-.13 1.68.462 1.152.332-.294.855-1.085 1.164-1.756 1.85-4.032-1.488-8.374-6.83-8.883l-1.602-.152 1.416.766m29.722.807c-.294.578-1.007 1.698-1.582 2.49-1.318 1.81-1.683 3.027-1.267 4.219.677 1.941 2.958 1.436 4.148-.918.972-1.923.822-4.673-.34-6.263-.401-.548-.452-.523-.959.472m-32.068 1.037c-.923.923-.998 2.54-.166 3.567.463.571.88.72 2.011.72 1.748 0 2.595-.84 2.595-2.575 0-2.288-2.79-3.363-4.44-1.712m-28.398.128c-2.112 1.288-5.168 5.812-4.426 6.552.271.27.915.063 2.693-.866 2.727-1.425 4.958-3.402 4.958-4.394 0-1.831-1.413-2.397-3.225-1.292m24.345 1.107c-.5.42-1.35 1.452-1.889 2.293-.547.852-1.54 1.863-2.245 2.286-1.88 1.127-.543.922 1.738-.267 3.727-1.943 5.115-3.482 4.17-4.622-.51-.614-.718-.578-1.774.31M10.868 95.116c-.302.49.612 1.336 2.548 2.36 2.682 1.42 4.703 1.9 7.824 1.858l2.768-.038-1.972-.282c-2.725-.39-6.182-1.595-8.664-3.022-2.356-1.355-2.234-1.312-2.504-.876m86.955 1.508c-3.276 1.164-5.826 2.76-7.793 4.876-1.05 1.13-2.242 2.659-2.648 3.398l-.737 1.342 1.614-1.762c2.002-2.186 5.782-5.026 9.096-6.835 3.26-1.778 3.387-2.057.468-1.02m48.458.984c-1.6.812-2.323 1.908-2.03 3.078.26 1.029 1.508 1.405 2.61.786 1.163-.653 2.21-2.377 2.103-3.464-.118-1.201-.88-1.315-2.683-.4m-6.252.354c-.827.826-.935 1.293-.47 2.02.26.408.384.408 1.11 0 1.14-.638 1.569-1.393 1.16-2.042-.514-.814-.97-.809-1.8.022M1.863 99.048c1.432 1.715 2.853 2.762 3.751 2.764.914.002.587-.747-.602-1.38-.624-.331-1.69-1.021-2.366-1.532-2.076-1.569-2.196-1.546-.783.148m46.089-.48c-1.847.497-3.992 1.78-5.018 2.999-1.053 1.251-.608 1.404 1.289.443 4.967-2.517 11.118-2.303 16.268.565l1.374.765-1.276-1.167c-3.528-3.227-8.636-4.684-12.637-3.606m71.529.669c-.965.675-.886 1.846.16 2.38.917.466 9.323.891 9.055.457-.308-.497-3.993-2.36-5.599-2.828-2.076-.607-2.761-.608-3.616-.01m-30.836.036c-.356.143-2.066 3.153-1.792 3.153.101 0 1.365-1.77 2.122-2.97.262-.417.258-.42-.33-.183m25.145.059c-.166.269 3.825.713 4.087.454.08-.077-.058-.269-.305-.425-.568-.359-3.564-.382-3.782-.03m37.114.26c-.025.204-.87 1.251-1.878 2.329-1.007 1.077-1.831 2.043-1.831 2.148 0 .104.462.19 1.027.19 1.983 0 3.211-1.782 2.86-4.15-.073-.488-.153-.72-.178-.517m-14.717 1.194a22.212 22.212 0 0 1-2.273 2.024c-1.197.9-1.203.914-.305.708 2.537-.583 4.731-2.3 4.317-3.378-.264-.69-.58-.571-1.739.646m-104.852.885c-.504.235-2.367 1.098-4.14 1.917-2.684 1.24-3.291 1.649-3.616 2.432-.509 1.229-.22 2.055.879 2.51 1.92.795 4.48-1.17 7.107-5.455 1.218-1.986 1.204-2.071-.23-1.404m15.138.67c-1.875.662-3.77 2.654-4.577 4.812-.8 2.139-.674 2.923.198 1.227.935-1.82 2.918-3.928 5.007-5.323 1.932-1.29 1.71-1.542-.628-.716m-38.481.597c.47 1.349 2.52 3.879 3.39 4.185 1.012.356 2.399.009 2.399-.6 0-1.02-.735-1.71-3.142-2.951a253.76 253.76 0 0 0-2.727-1.394c-.122-.056-.086.286.08.76m131.236-.202c-2.38.403-3.55 1.605-3.143 3.228.363 1.444 2.598 1.809 4.655.76 1.27-.649 3.402-2.838 3.402-3.495 0-.712-2.272-.94-4.914-.493m-88.66.725c-1.232.537-1.772 1.244-1.53 2.004.27.854 1.53.813 4.538-.148 1.319-.42 3.08-.78 3.914-.8 1.803-.04 1.614-.333-.642-.994-1.99-.582-5.016-.613-6.28-.062M39.05 104.87c-.945.843-2.003 1.992-2.35 2.555-.644 1.042-.847 2.325-.369 2.325.636 0 1.956-1.405 2.68-2.854.434-.865 1.123-2.019 1.533-2.565 1.077-1.435.48-1.22-1.494.54m-24.048-.184c0 .376 3.782 2.575 4.735 2.754 1.15.215 2.897-.02 2.897-.39 0-.115-1.23-.503-2.732-.862-1.502-.359-3.172-.872-3.71-1.14-1.038-.519-1.19-.565-1.19-.362m116.317.76c.724.405 2.716.69 3.372.483 1.268-.403.501-.759-1.616-.75-1.362.006-2.038.108-1.756.266m-124.832.335c-.058 1.173.928 4.687 1.798 6.41 2.15 4.261 5.806 6.78 10.124 6.978 3.391.155 5.113-.489 7.389-2.764.988-.988 1.709-1.884 1.603-1.99-.107-.107-.57.166-1.03.606-1.125 1.077-3.844 2.262-5.757 2.51-6.004.78-11.288-3.32-13.573-10.529-.292-.923-.542-1.473-.554-1.22m122.085.888c4.971 4.288 12.832 4.889 17.096 1.307.678-.57.542-.55-1.221.183-1.736.722-2.386.824-5.19.815-2.803-.009-3.59-.138-6.259-1.027-1.679-.56-3.602-1.284-4.274-1.608l-1.221-.591 1.069.921m-82.735-.063c-1.48.541-2.294 2.254-1.466 3.082 1.25 1.25 4.451-1.136 3.8-2.834-.176-.457-1.404-.587-2.334-.248m-30.993 1.078c.334.212 1.216 1.04 1.961 1.84 1.482 1.59 3.35 2.362 5.717 2.362 1.633 0 4.161-.53 4.814-1.01.4-.293.036-.37-1.874-.394-1.895-.023-2.834-.217-4.685-.968-1.273-.517-2.853-1.037-3.51-1.156-.658-.12-1.609-.407-2.113-.638-.564-.26-.683-.274-.31-.036m-2.843 2.294c2.884 4.192 5.984 5.758 10.158 5.132 1.82-.273 1.768-.653-.122-.904-1.814-.24-6.25-2.402-8.836-4.305-1.025-.755-1.94-1.373-2.03-1.373-.093 0 .281.653.83 1.45m95.81-.247c1.2.983 3.703 2.155 4.603 2.155 1.586 0 1.97-1.555.52-2.104-.383-.145-1.863-.356-3.29-.47l-2.596-.207.763.626m-69.784.31c-.35.144-1.017.714-1.482 1.267-1.132 1.345-.961 3.08.424 4.318 1.4 1.251 3.097 1.176 4.471-.198.668-.668 1.038-1.332 1.038-1.862 0-1.044-.842-2.842-1.49-3.18-.854-.448-2.3-.616-2.961-.344m116.298 1.53c-2.114 1.212-3.254 2.683-4.237 5.466-.452 1.28-.961 2.5-1.132 2.71-.21.259-.208.381.01.381.525 0 2.445-2.435 3.88-4.924.742-1.285 1.816-2.832 2.388-3.438 1.258-1.334 1.126-1.362-.909-.196m-95.666-.39c-8.113 1.358-13.733 8.779-13.83 18.26-.043 4.166.766 6.215 3.238 8.205.994.8 1.47.953 3.285 1.055 1.827.104 2.354.007 3.79-.696 2.669-1.305 4.274-3.468 5.847-7.88 1.253-3.513 2.514-5.619 4.425-7.388 2.031-1.88 4.395-2.913 6.668-2.913h1.494l-.27-.942c-.707-2.462-3.47-5.644-5.735-6.603-2.73-1.156-6.092-1.57-8.912-1.098m55.732.365c.327.306 3.495 1.262 3.495 1.055 0-.074-.584-.4-1.297-.723-1.345-.61-2.72-.818-2.198-.332m7.202 2.059c2.457 3.53 4.841 4.475 4.841 1.92 0-1.12-.908-1.979-3.205-3.03-3.489-1.595-3.51-1.58-1.636 1.11m-78.02 1.371c-2.55 4.32-6.713 5.482-9.582 2.677-.537-.525-.977-.783-.977-.573 0 .788 1.268 2.39 2.265 2.864 3.03 1.438 6.358-.372 8.553-4.652.669-1.304.47-1.548-.259-.316m12.981.141c-2.422.651-4.482 1.884-6.089 3.644-1.518 1.662-2.9 4.2-3.24 5.948-.193.995-.14.953.776-.611 2.02-3.45 6.005-6.454 9.908-7.47 2.258-.589 6.496-.597 8.673-.017.916.243 1.71.4 1.762.346.054-.053-.696-.45-1.665-.881-3.213-1.43-7.03-1.791-10.125-.959m60.416-.371c0 .393 1.714 2.734 2.641 3.608 1.532 1.444 3.943 1.901 5.811 1.102l.86-.367-1.069-.104c-2.647-.258-4.944-1.355-7.098-3.393-.63-.595-1.145-.976-1.145-.846m9.908 2.353c-.111.18.11.661.494 1.068.503.536 1.021.741 1.873.741 1.145 0 3.531-.782 3.249-1.064-.166-.167-4.385-1.073-4.993-1.073-.23 0-.511.147-.623.328m-29.446.77c-1.09.42-2.094.873-2.229 1.008-.135.135.632.327 1.704.427 1.072.1 2.872.414 4 .698 2.262.568 3.23.373 3.845-.776.278-.52.206-.757-.426-1.389-.666-.666-1.02-.759-2.836-.746-1.45.01-2.67.244-4.058.778m11.764 1.533c.466.988.855 2.598 1.057 4.382.34 2.997.583 3.708 1.487 4.344.31.218.789 1.152 1.063 2.076.619 2.085 1.25 3.103.946 1.526a13.22 13.22 0 0 0-.626-2.088c-.316-.77-.336-1.175-.08-1.652.883-1.65-.693-5.901-3.205-8.645l-1.379-1.506.737 1.563m27.57-.877c-3.05.103-3.817.418-3.435 1.413.113.293.537.496 1.037.496.894 0 4.837-1.37 5.332-1.854.159-.155.228-.254.152-.219-.076.035-1.464.109-3.085.164m-77.582.7c-1.659.279-4.027 1.555-4.49 2.42-.665 1.244-.234 1.208 1.652-.138 1.08-.77 2.694-1.66 3.588-1.977 1.743-.62 1.561-.693-.75-.305m79.108 1.479c-3.253 1.59-3.92 2.043-3.92 2.668 0 .693 1.347.48 2.659-.419 1.195-.819 4.65-3.765 4.357-3.715-.081.014-1.474.674-3.096 1.466m-76.581.077c-3.312.542-6.411 2.77-6.411 4.609 0 .798 1.106 1.783 1.748 1.557.298-.105 1.778-1.444 3.29-2.977 1.51-1.532 3.022-2.947 3.357-3.143.73-.426.385-.434-1.984-.046m33.573.465c.75.263 2.151 1.012 3.113 1.665 1.797 1.22 2.823 1.484 3.088.793.487-1.27-3.373-2.998-6.588-2.95-.944.014-.93.032.387.492m25.654-.198c0 .516 2.594 1.8 3.666 1.814 5.622.073 7.1-.01 7.943-.447 1.084-.56 1.153-.928.221-1.178-1.779-.476-5.244.05-5.907.896-.288.368-.58.365-2.062-.02-.95-.248-2.207-.65-2.794-.896-.587-.246-1.067-.322-1.067-.17m-16.36.763c-.242.96.53 2.204 1.622 2.62 1.115.423 1.748-.232 1.465-1.519-.388-1.77-2.712-2.599-3.088-1.1m-72.391-.05c-1.465.402-2.653 1.33-1.292 1.011 1.024-.24 3.035-1.084 3.035-1.273 0-.191-.187-.163-1.743.263m-6.347 1.38c-.84.477-2.214 1.264-3.053 1.75l-1.527.885 1.165.096c.64.053 2.267-.037 3.613-.2 2.544-.308 3.923-1.073 3.923-2.178 0-1.447-1.903-1.61-4.121-.352m8.589 1.149c-2.042 2.245-3.975 3.354-6.712 3.852l-1.877.342 1.32.236c2.366.424 5.116-.378 6.864-2 .78-.724 2.56-4.044 2.304-4.294-.06-.058-.914.781-1.899 1.864m16.9-.849c-.984.985-1.16 2.03-.496 2.94.946 1.294 3.412-.903 3.189-2.84-.144-1.24-1.502-1.29-2.693-.1m-12.772 1.415c-3.516 5.348-9.22 7.245-16.376 5.446-3.056-.768-5.78-2.27-9.005-4.962l-1.672-1.397 1.062 1.336c1.423 1.79 4.81 4.41 7.12 5.507 3.123 1.484 5.426 1.942 8.992 1.788 2.922-.127 3.308-.22 5.486-1.33 2.789-1.422 4.252-3.142 5.244-6.163.358-1.09.603-2.028.546-2.085-.058-.057-.686.78-1.397 1.86m108.377-1.127c-.563.454-2.203 1.443-3.643 2.199-2.853 1.496-4.08 2.733-3.547 3.578.947 1.502 2.353 1.243 4.41-.813 1.397-1.398 3.31-4.098 3.742-5.284.243-.665.27-.674-.962.32m-45.305 1.002c-.897.523-.681 2.043.424 2.98.527.446 1.768 1.522 2.758 2.39 1.844 1.615 3.91 2.554 5.574 2.53l.937-.014-1.103-.394c-2.36-.843-3.616-2.152-5.195-5.411-1.037-2.142-2.134-2.815-3.395-2.081m6.398 1.534c-.387.225-.487.514-.34.983.253.812.675 1.111 1.575 1.118.82.005.912-.759.211-1.76-.533-.761-.669-.793-1.446-.34m10.788 1.036c-.032 1.421 3.993 5.948 6.362 7.155 3.075 1.566 8.106 2.026 11.802 1.08 2.856-.731 6.535-2.636 8.231-4.26.84-.805 1.252-1.254.916-1-3.747 2.845-10.695 4.591-15.568 3.913-4.62-.642-8.639-2.921-11.073-6.278-.365-.504-.667-.778-.67-.61m-51.473 1.533c-3.174 1.883-4.533 3.832-3.913 5.607.208.594.522.821 1.232.89 1.153.113 1.816-.696 2.826-3.451.37-1.007 1.01-2.347 1.422-2.977.412-.63.636-1.144.498-1.144s-1.067.484-2.065 1.075m-15.28.117c-1.305.795-2.562 3.39-2.562 5.288 0 1.718.53 2.128 1.794 1.388 1.743-1.02 3.77-5.316 3.205-6.79-.244-.635-1.289-.587-2.438.114m-4.893.181c-.242.63.086 1.374.606 1.374.237 0 .601-.206.81-.458.303-.365.303-.55 0-.916-.209-.252-.573-.458-.81-.458-.237 0-.51.206-.606.458m9.798.666c-.805 1.89-2.325 6.05-2.144 5.868.63-.63 3.284-5.451 3.327-6.042.085-1.191-.646-1.083-1.183.174m57.878-.659c-.02 1.146 1.101 4.638 1.958 6.1 2.801 4.78 8.804 7.352 14.302 6.129 2.225-.495 6.368-2.26 6.748-2.874.107-.173-.626.007-1.628.4-6.305 2.47-12.327 1.623-16.67-2.345-1.933-1.767-2.675-2.897-3.839-5.845-.473-1.2-.866-1.904-.871-1.565m9.64.416c2.598 1.211 6.442 1.945 9.41 1.797 2.52-.127 5.362-.875 5.363-1.413 0-.108-1.545-.148-3.434-.09-2.984.093-9.522-.316-11.83-.74-.48-.088-.298.078.492.446m-29.566 1.104c.324.504.838 1.575 1.14 2.38.357.95.655 1.36.847 1.167.502-.5-.013-1.711-1.326-3.12-.885-.95-1.078-1.075-.661-.427m23.72-.153c.354 1.194 1.657 3.32 2.826 4.615 1.333 1.476 4.25 2.917 6.649 3.285 1.933.296 2.662.21 1.18-.14-2.786-.657-7.14-3.804-9.66-6.982-.873-1.1-1.157-1.323-.995-.778m-79.802 2.225c-.849.918-2.155 1.853-3.511 2.512-2.164 1.052-2.857 1.55-3.987 2.858l-.606.703 1.217-.217c2.577-.46 6.244-3.097 7.657-5.507 1.119-1.91.805-2.051-.77-.349M70 132.218c-.095 1.326-2.04 4.599-3.758 6.322-2.018 2.025-4.57 3.33-7.6 3.884-1.788.328-4.922.236-6.315-.185-.296-.09-.03.12.59.465.621.345 1.995.749 3.053.896 4.722.66 9.378-1.194 11.982-4.771 1.224-1.682 2.415-5.09 2.225-6.367-.085-.567-.148-.654-.177-.244m-50.465 1.042c1.653 1.5 3.937 2.633 6.231 3.091 2.199.44 4.923-.148 7.14-1.54 1.767-1.11 1.681-1.146-.684-.288-3.567 1.292-7.03.806-12.49-1.752l-1.526-.716 1.33 1.205m77.335 1.617c-.477.574-.768 2.759-.533 4.006.298 1.594 1.54 2.925 2.722 2.92 1.136-.006 1.513-.218 1.988-1.12.84-1.594-.142-4.212-2.065-5.507-1.18-.796-1.646-.861-2.112-.3m-57.408 2.142c-1.676 2.437-4.062 3.568-7.527 3.568-1.89 0-2.496-.145-4.21-1.008-2.074-1.044-2.28-.872-.617.516 1.506 1.257 3.055 1.767 5.367 1.767 3.617 0 6.317-1.825 7.754-5.241.535-1.272.298-1.149-.767.398m22.906.212c-.729.66-2.159 1.616-3.178 2.125-1.394.697-1.663.926-1.088.926 1.73 0 6.05-2.85 6.05-3.993 0-.506-.437-.275-1.784.942m-21.364 1.028c-1.546 2.914-4.573 5.086-7.721 5.54-3.285.473-7.515-1.559-9.754-4.686-1.397-1.95-1.514-1.87-.42.29 4.124 8.138 15.512 7.877 18.316-.42.667-1.973.444-2.355-.421-.724m52.918.343c.26 2.573 1.04 4.418 2.472 5.85 1.162 1.162 1.49 1.325 2.67 1.325.822 0 1.491-.178 1.724-.458.322-.389.247-.459-.497-.465-1.34-.01-3.302-1.032-4.173-2.175-.831-1.089-1.25-2.008-1.93-4.23l-.42-1.373.154 1.526m17.347.33c-.351.915.19 4.468.924 6.072 1.556 3.4 4.297 5.378 7.764 5.605 2.394.156 4.29-.357 5.61-1.519l1.018-.896-1.068.542c-1.633.83-5.502.75-7.48-.155-3.112-1.421-5.054-4.144-5.686-7.97-.347-2.104-.706-2.66-1.082-1.68m4.478-.02c0 .685 1.78 3.11 2.98 4.06 3.92 3.105 9.835 3.896 13.964 1.869.672-.33.95-.521.618-.425-.332.096-1.912.253-3.511.35-4.94.297-8.82-1.085-12.143-4.327-1.049-1.024-1.908-1.71-1.908-1.527m-1.497 1.065c-.03 2.564 2.035 5.716 4.614 7.048 1.715.885 2.069.7.53-.277-2.012-1.277-3.392-3.267-4.58-6.602l-.549-1.543-.015 1.374m-6.322-.334a5.266 5.266 0 0 0-2.423 3.55c-.26 1.438-.202 1.398 1.373-.945a107.13 107.13 0 0 1 1.723-2.5c.613-.834.541-.846-.673-.105m-64.558 2.286c2.799 4.068 6.426 5.776 10.097 4.753l1.374-.382-1.374-.375c-2.743-.748-7.49-2.923-9.312-4.266-1.66-1.224-1.784-1.181-.785.27m59.52 1.02c-.728.163-1.297 1.564-.853 2.1.534.643 1.43.508 1.956-.297.726-1.107.132-2.081-1.102-1.804m5.593 1.088c-.901 2.492-3.874 3.977-6.774 3.383-.843-.173-1.533-.231-1.533-.13 0 .377 2.591 1.847 3.586 2.034 1.968.37 3.71-.036 4.833-1.125 1.207-1.17 1.56-2.539 1.052-4.08-.446-1.35-.699-1.368-1.164-.082m-67.566 2.153c1.222 1.777 3.994 3.654 6.168 4.175 2.575.618 6.003.263 8.28-.858 1.066-.525 2.257-1.293 2.647-1.708l.708-.754-1.94.817c-1.78.75-2.28.817-6.062.817-4.014 0-4.175-.025-6.212-.99-1.15-.544-2.656-1.437-3.347-1.984l-1.258-.995 1.016 1.48m-4.695 1.65c.906 1.426 1.785 2.274 2.809 2.71 1.215.518 1.163.52 1.743-.06.783-.784.082-1.538-2.108-2.267-1.092-.363-2.063-.787-2.159-.941a.654.654 0 0 0-.496-.282c-.177 0-.082.378.211.84m5.032 2.798c0 .307 2.06 1.11 3.511 1.367.623.111.33-.119-.916-.718-1.95-.939-2.595-1.1-2.595-.649"/></svg>