<?xml version="1.0" encoding="UTF-8"?>
<svg id="Layer_1" data-name="Layer 1" xmlns="http://www.w3.org/2000/svg" xmlns:xlink="http://www.w3.org/1999/xlink" viewBox="0 0 599.81 193">
  <defs>
    <style>
      .cls-1 {
        filter: url(#drop-shadow-3);
      }

      .cls-2 {
        filter: url(#drop-shadow-1);
      }

      .cls-3, .cls-4 {
        fill: #fff;
        stroke-width: 0px;
      }

      .cls-5 {
        filter: url(#drop-shadow-2);
      }

      .cls-4 {
        fill-rule: evenodd;
        filter: url(#drop-shadow-4);
      }
    </style>
    <filter id="drop-shadow-1" filterUnits="userSpaceOnUse">
      <feOffset dx="7" dy="7"/>
      <feGaussianBlur result="blur" stdDeviation="5"/>
      <feFlood flood-color="#000" flood-opacity="1"/>
      <feComposite in2="blur" operator="in"/>
      <feComposite in="SourceGraphic"/>
    </filter>
    <filter id="drop-shadow-2" filterUnits="userSpaceOnUse">
      <feOffset dx="7" dy="7"/>
      <feGaussianBlur result="blur-2" stdDeviation="5"/>
      <feFlood flood-color="#000" flood-opacity="1"/>
      <feComposite in2="blur-2" operator="in"/>
      <feComposite in="SourceGraphic"/>
    </filter>
    <filter id="drop-shadow-3" filterUnits="userSpaceOnUse">
      <feOffset dx="7" dy="7"/>
      <feGaussianBlur result="blur-3" stdDeviation="5"/>
      <feFlood flood-color="#000" flood-opacity="1"/>
      <feComposite in2="blur-3" operator="in"/>
      <feComposite in="SourceGraphic"/>
    </filter>
    <filter id="drop-shadow-4" filterUnits="userSpaceOnUse">
      <feOffset dx="7" dy="7"/>
      <feGaussianBlur result="blur-4" stdDeviation="5"/>
      <feFlood flood-color="#000" flood-opacity="1"/>
      <feComposite in2="blur-4" operator="in"/>
      <feComposite in="SourceGraphic"/>
    </filter>
  </defs>
  <g class="cls-2">
    <path class="cls-3" d="m210.41,44.94h8.95l13.25,39.01,13.16-39.01h8.85v46.14h-5.94v-27.22c0-.97.02-2.52.07-4.66.04-2.2.06-4.56.06-7.02l-13.16,38.91h-6.19l-13.25-38.9v1.39c0,1.12.03,2.89.07,5.2.05,2.3.08,4.02.08,5.09v27.22h-5.96v-46.14h0Zm46.93,0h7.29l13.25,22.19,13.25-22.18h7.31l-17.43,27.54v18.6h-6.25v-18.6l-17.43-27.54Z"/>
  </g>
  <g class="cls-5">
    <path class="cls-3" d="m333.1,86.3c-3.46,3.16-7.87,4.77-13.25,4.77-6.66,0-11.89-2.14-15.7-6.43-3.81-4.29-5.72-10.18-5.72-17.63,0-8.09,2.17-14.31,6.5-18.7,3.77-3.8,8.56-5.68,14.38-5.68,7.79,0,13.48,2.52,17.08,7.66,1.99,2.84,3.05,5.73,3.2,8.63h-9.67c-.63-2.2-1.43-3.91-2.42-5.04-1.76-1.98-4.37-3-7.82-3s-6.29,1.39-8.32,4.23c-2.03,2.84-3.04,6.86-3.04,12.06s1.07,9.06,3.22,11.68c2.15,2.57,4.88,3.86,8.18,3.86s5.98-1.12,7.75-3.32c.99-1.18,1.8-3,2.45-5.36h9.58c-.84,5.04-2.97,9.11-6.4,12.27Zm31.04,4.77c-6.61,0-11.67-1.82-15.17-5.41-4.69-4.39-7.03-10.77-7.03-19.08s2.34-14.84,7.03-19.08c3.5-3.64,8.55-5.41,15.17-5.41s11.67,1.77,15.17,5.41c4.67,4.23,7,10.61,7,19.08s-2.33,14.68-7,19.08c-3.5,3.59-8.55,5.41-15.17,5.41Zm9.14-12.43c2.24-2.84,3.36-6.86,3.36-12.06s-1.13-9.22-3.38-12.06c-2.25-2.84-5.3-4.23-9.13-4.23s-6.89,1.39-9.16,4.23c-2.28,2.84-3.42,6.86-3.42,12.06s1.14,9.22,3.42,12.06c2.28,2.84,5.34,4.23,9.16,4.23s6.88-1.39,9.14-4.23h0Zm26.04,11.15h-9.01v-46.3h14.07l8.41,36.39,8.35-36.39h13.91v46.3h-9.01v-31.3c0-.91.01-2.2.03-3.81.02-1.61.03-2.89.03-3.75l-8.76,38.85h-9.39l-8.7-38.85c0,.86.01,2.14.03,3.75.02,1.61.03,2.89.03,3.81v31.3h0Zm61.15-16.67h-9.83v16.67h-9.61v-46.3h20.16c4.65,0,8.35,1.18,11.11,3.59,2.77,2.41,4.15,6.06,4.15,11.09,0,5.47-1.38,9.33-4.15,11.58-2.76,2.25-6.71,3.38-11.84,3.38h0Zm4.52-9.65c1.25-1.07,1.89-2.84,1.89-5.25s-.64-4.13-1.9-5.14c-1.27-1.02-3.04-1.56-5.32-1.56h-9.01v13.67h9.01c2.28,0,4.06-.59,5.34-1.71h0Zm38.1,16.77h-17.05l-3.2,9.54h-10.11l16.52-46.3h10.93l16.39,46.3h-10.49l-2.98-9.54h0Zm-2.7-7.93l-5.78-18.22-5.97,18.22h11.75Zm56.26,17.47h-9.67l-18.9-32.9v32.9h-9.01v-46.3h10.14l18.43,32.31v-32.31h9.01v46.3h0Zm43.16-46.3l-15.48,28.88v17.42h-9.67v-17.42l-16.01-28.88h11.4l9.61,20.15,9.2-20.15h10.96,0Z"/>
  </g>
  <g class="cls-1">
    <path class="cls-3" d="m213.09,104.15c.05-1.35.28-2.33.7-2.94.76-1.11,2.21-1.66,4.37-1.66h.63c.21.03.46.03.74.06v2.95c-.34,0-.58-.03-.73-.03h-.42c-.98,0-1.57.25-1.76.74-.19.52-.29,1.81-.29,3.9h3.2v2.55h-3.24v16.63h-3.2v-16.63h-2.68v-2.55h2.68s0-3.01,0-3.01Zm7.67,2.92h3.07v3.34c.25-.64.87-1.44,1.85-2.36.99-.95,2.12-1.41,3.4-1.41.06,0,.16,0,.3.03.14,0,.39.03.74.06v3.44c-.19-.06-.37-.06-.53-.09h-.53c-1.63,0-2.88.52-3.76,1.57-.87,1.04-1.31,2.24-1.31,3.62v11.08h-3.23v-19.27h0Zm18.35-.43c1.37,0,2.69.34,3.97.98,1.28.61,2.26,1.47,2.93,2.49.65.95,1.08,2.09,1.29,3.38.19.89.29,2.3.29,4.26h-14.11c.06,1.93.52,3.53,1.38,4.69.86,1.2,2.2,1.78,4.01,1.78,1.69,0,3.04-.55,4.04-1.69.58-.64,1-1.41,1.22-2.24h3.18c-.09.71-.37,1.5-.84,2.36-.42.79-.96,1.51-1.59,2.15-.99.95-2.2,1.6-3.65,1.93-.78.18-1.66.28-2.64.28-2.4,0-4.43-.86-6.1-2.61-1.66-1.75-2.5-4.2-2.5-7.33s.84-5.58,2.52-7.52c1.68-1.93,3.87-2.92,6.58-2.92h0Zm5.16,8.53c-.13-1.41-.44-2.52-.92-3.38-.89-1.54-2.37-2.33-4.44-2.33-1.49,0-2.73.55-3.74,1.63-1.01,1.07-1.54,2.42-1.6,4.08h10.7,0Zm13.48-8.53c1.37,0,2.69.34,3.97.98,1.28.61,2.26,1.47,2.93,2.49.65.95,1.08,2.09,1.3,3.38.19.89.29,2.3.29,4.26h-14.11c.06,1.93.52,3.53,1.38,4.69.86,1.2,2.2,1.78,4.01,1.78,1.69,0,3.04-.55,4.04-1.69.58-.64.99-1.41,1.22-2.24h3.18c-.08.71-.36,1.5-.83,2.36-.42.79-.96,1.51-1.59,2.15-.98.95-2.2,1.6-3.65,1.93-.78.18-1.66.28-2.64.28-2.4,0-4.43-.86-6.1-2.61-1.67-1.75-2.5-4.2-2.5-7.33s.84-5.58,2.52-7.52c1.68-1.93,3.87-2.92,6.58-2.92h0Zm5.16,8.53c-.13-1.41-.43-2.52-.91-3.38-.89-1.54-2.37-2.33-4.44-2.33-1.49,0-2.73.55-3.74,1.63-1.01,1.07-1.54,2.42-1.6,4.08h10.7Zm5.55-15.25h3.24v26.41h-3.24v-26.41Zm13.89,24.33c2.14,0,3.61-.83,4.41-2.46.8-1.6,1.2-3.4,1.2-5.4,0-1.81-.29-3.25-.86-4.39-.91-1.78-2.48-2.67-4.71-2.67-1.98,0-3.42.77-4.31,2.27-.9,1.5-1.35,3.35-1.35,5.46s.45,3.77,1.35,5.12c.9,1.38,2.33,2.06,4.28,2.06h0Zm.13-17.74c2.48,0,4.58.83,6.29,2.49,1.72,1.66,2.57,4.08,2.57,7.3s-.76,5.68-2.27,7.7c-1.51,2.03-3.85,3.04-7.03,3.04-2.65,0-4.75-.89-6.31-2.7-1.56-1.78-2.33-4.2-2.33-7.21,0-3.25.82-5.83,2.46-7.73,1.64-1.93,3.85-2.88,6.62-2.88h0Zm17.66.22c1.51,0,2.83.37,3.95,1.14.61.4,1.23,1.01,1.87,1.81v-2.42h2.98v17.52c0,2.46-.36,4.36-1.08,5.8-1.34,2.61-3.88,3.9-7.6,3.9-2.08,0-3.82-.46-5.23-1.38-1.41-.92-2.21-2.39-2.38-4.36h3.29c.15.86.47,1.53.93,1.99.73.71,1.88,1.07,3.45,1.07,2.48,0,4.11-.86,4.87-2.64.46-1.01.67-2.85.63-5.49-.65.98-1.42,1.69-2.33,2.18-.91.49-2.12.74-3.61.74-2.09,0-3.91-.77-5.47-2.24-1.57-1.47-2.35-3.93-2.35-7.33,0-3.22.79-5.74,2.37-7.55,1.57-1.81,3.48-2.73,5.71-2.73Zm5.82,9.88c0-2.36-.49-4.14-1.47-5.28-.98-1.17-2.24-1.75-3.76-1.75-2.28,0-3.83,1.07-4.67,3.22-.45,1.14-.67,2.61-.67,4.48,0,2.15.44,3.81,1.32,4.94.88,1.14,2.07,1.69,3.55,1.69,2.33,0,3.96-1.04,4.91-3.13.52-1.2.79-2.58.79-4.17h0Zm13.66,7.64c2.14,0,3.62-.83,4.42-2.46.8-1.6,1.19-3.4,1.19-5.4,0-1.81-.29-3.25-.86-4.39-.91-1.78-2.48-2.67-4.71-2.67-1.98,0-3.42.77-4.31,2.27-.9,1.5-1.35,3.35-1.35,5.46s.45,3.77,1.35,5.12c.9,1.38,2.32,2.06,4.28,2.06h0Zm.13-17.74c2.48,0,4.58.83,6.29,2.49s2.57,4.08,2.57,7.3-.76,5.68-2.26,7.7c-1.51,2.03-3.85,3.04-7.03,3.04-2.65,0-4.75-.89-6.31-2.7-1.56-1.78-2.34-4.2-2.34-7.21,0-3.25.82-5.83,2.46-7.73,1.64-1.93,3.85-2.88,6.62-2.88h0Zm11.64,15.89h3.76v3.92h-3.76v-3.92Zm7.62-15.34h3.2v2.73c.77-.92,1.46-1.63,2.08-2.06,1.07-.74,2.28-1.1,3.63-1.1,1.54,0,2.77.4,3.7,1.14.53.43,1.01,1.07,1.44,1.9.72-1.01,1.57-1.78,2.53-2.27.97-.52,2.06-.77,3.27-.77,2.59,0,4.35.95,5.29,2.82.5,1.01.76,2.36.76,4.05v12.83h-3.36v-13.38c0-1.29-.32-2.18-.96-2.64-.64-.49-1.42-.74-2.35-.74-1.27,0-2.36.43-3.28,1.29-.92.86-1.37,2.27-1.37,4.26v11.2h-3.29v-12.58c0-1.29-.15-2.24-.47-2.85-.49-.89-1.41-1.35-2.75-1.35-1.22,0-2.33.49-3.33,1.44-1,.92-1.5,2.64-1.5,5.12v10.22h-3.23v-19.27h0Zm36.85-.43c1.36,0,2.69.34,3.97.98,1.28.61,2.26,1.47,2.93,2.49.65.95,1.08,2.09,1.3,3.38.19.89.29,2.3.29,4.26h-14.11c.06,1.93.52,3.53,1.38,4.69.86,1.2,2.2,1.78,4.01,1.78,1.69,0,3.04-.55,4.05-1.69.58-.64,1-1.41,1.22-2.24h3.18c-.08.71-.36,1.5-.84,2.36-.42.79-.96,1.51-1.59,2.15-.98.95-2.2,1.6-3.65,1.93-.78.18-1.66.28-2.64.28-2.4,0-4.43-.86-6.09-2.61-1.67-1.75-2.5-4.2-2.5-7.33s.84-5.58,2.52-7.52c1.67-1.93,3.87-2.92,6.58-2.92h0Zm5.16,8.53c-.13-1.41-.44-2.52-.92-3.38-.89-1.54-2.37-2.33-4.44-2.33-1.49,0-2.73.55-3.74,1.63-1.01,1.07-1.54,2.42-1.6,4.08h10.7,0Z"/>
  </g>
  <path class="cls-4" d="m60.34,9.96c-.76,4.1-1.88,5.61-8.33,11.31-2.68,2.36-3.73,3.94-4.79,7.19-.68,2.09-.79,2.98-.79,6.11.02,9.38,4.53,16.5,10.88,17.16.92.1,2.06.07,2.53-.06.81-.21.74-.26-.97-.75-2.67-.76-4.1-1.6-5.75-3.36-2.85-3.05-4.01-6.78-4.01-12.99,0-6.68.79-8.5,5.93-13.57,2.64-2.61,3.78-3.97,4.39-5.26,1.02-2.16,1.49-4.32,1.37-6.24l-.09-1.48-.36,1.96m13.06,2.5c-7.86,5.25-10.17,18.03-4.49,24.85l.76.92-.74-2.07c-2.03-5.66-1.42-13.45,1.5-19,.53-1.01,1.89-2.76,3.01-3.89,1.13-1.13,2-2.06,1.94-2.06s-.95.56-1.98,1.25m4.4.39c-1.51.72-3.19,1.73-3.72,2.24-1.19,1.12-1.58,2.4-.93,3.05.41.41.56.41,1.34,0,.89-.47,6.77-6.62,6.32-6.61-.14,0-1.49.6-3,1.33m10.53-.42c-1.26.33-3.58,1.24-5.17,2.03-5.96,2.94-10.04,8.42-11.19,15.08-.64,3.67-.42,7.91.6,11.94.88,3.45,1.93,5.64,4.62,9.57,1.09,1.6,1.95,2.91,1.91,2.9-.04,0-.95-.28-2.02-.61-4.55-1.43-7.82-1.14-15.62,1.39-6.39,2.07-6.89,2.19-10.29,2.58-6.8.77-11.39-1.36-13.79-6.4-.71-1.49-.8-2.04-.79-4.89.01-2.79.12-3.46.86-5.19.46-1.09.92-2.19,1.03-2.44.13-.32-.02-.28-.49.14-.37.33-1.18,1.62-1.81,2.88-1.12,2.26-1.13,2.34-1.13,5.97,0,3.42.06,3.82.88,5.6,1.17,2.52,4.02,5.24,6.47,6.16,2.77,1.03,4.43,1.28,7.89,1.18,1.78-.05,3.2-.02,3.15.07-.13.28-2.45,3.91-4.35,6.8-3.03,4.62-6.38,6.8-11.01,7.15-3.8.29-7.52-1.2-10.78-4.3l-1.96-1.87.84,1.37c2.56,4.17,6.66,6.41,11.73,6.41,6.35,0,10.42-2.55,15.24-9.54,1.21-1.76,2.76-3.64,3.43-4.18,1.72-1.38,5.86-3.52,8.23-4.24,8.39-2.55,15.75.82,17.08,7.83.31,1.61-.03,4.48-.67,5.67-.29.54-.34.52-.7-.3-1.58-3.66-6.98-6.32-11.79-5.82-3.83.4-7.27,2.3-12.05,6.66-2.6,2.37-3.95,3.35-6.2,4.47l-2.87,1.43h-4.61c-3.59-.03-4.9-.14-5.95-.55-2.22-.86-1.81-.3.64.86,3.51,1.67,7.83,1.94,12.16.76,2.61-.71,3.7-1.39,9.08-5.72,3.51-2.82,5.33-3.85,8.1-4.56,3.61-.92,6.67-.12,8.89,2.33,1.43,1.59,1.72,2.35,1.72,4.6s-.51,3.57-2.81,7.37c-.98,1.63-2.19,3.82-2.68,4.89-1.17,2.53-1.94,6.45-1.79,9.13.07,1.16,0,2.11-.13,2.11-.6,0-3.55-1.72-5.4-3.14-2.27-1.74-5.26-3.22-8.42-4.15-6.36-1.87-11.81-1.68-20.28.7-6.75,1.89-9.8,2.07-13.22.78-3.07-1.16-6.67-4.43-8.27-7.52-.44-.85-.44-.97.02-1.43.88-.89.54-2.38-1.42-6.12l-1.86-3.56v3.9c0,4.33.46,5.95,1.74,6.13.5.07.73.37.88,1.15.27,1.43,2.26,4.44,4.1,6.21,4.02,3.86,10.13,5.17,17.09,3.67,9.64-2.08,10.23-2.17,12.52-2.04,2.95.17,4.74.96,8.54,3.74l2.98,2.18-2.46.36c-1.81.26-3.22.73-5.37,1.78-2.48,1.21-3.32,1.83-5.68,4.2-3.2,3.22-4.51,5.49-6.56,11.33-2.3,6.57-4.31,9.45-7.75,11.15-1.69.83-2.2.94-4.64.94-6.22,0-10.79-3.24-13.13-9.3-.88-2.29-.96-1.86-.14.79,2.01,6.51,7.82,10.59,14.63,10.26,6.58-.32,10.37-4.07,13.77-13.65,1.67-4.71,5.17-9.37,8.72-11.62,3.37-2.14,8.65-2.85,12.91-1.74,4.35,1.14,9.39,4.56,12.24,8.33,1.63,2.15,1.88,2.75,1,2.41-1.44-.56-4.19-.83-6.94-.68-10.29.54-17.62,7.15-19.07,17.19-.89,6.16.2,11.03,3.15,14.11,2.56,2.68,5.31,3.35,9.07,2.2,1.93-.59,2.46-.92,4.09-2.56,1.6-1.61,2.06-2.35,3.19-5.09,1.81-4.39,2.38-5.48,3.49-6.67,1.72-1.83,5-3.05,7.1-2.66l1.12.21-.17,3.87c-.2,4.54-.9,7.51-2.62,11.18-3.07,6.56-7.6,11.1-14.42,14.45-3.61,1.77-6.83,2.66-10.81,2.98-2.7.22-2.73.23-1.64.61,2.1.73,5.74,1.14,8.61.97,2.52-.15,4.86-.73,7.68-1.91.59-.25.6-.24.06.37-.82.94-3.87,2.47-5.9,2.96-1.77.43-1.77.43-.57.48.67.03,1.5.1,1.83.16.34.06,1.94-.02,3.56-.18,4.42-.45,7.94-1.73,10.53-3.83.7-.57,1.34-1.03,1.41-1.03.36,0,.49,2.04.2,3.1-.45,1.68-1.88,3.16-4.06,4.21l-1.88.9,1.37-.16c4.77-.57,8.06-2.02,10.66-4.69l1.66-1.71.94,1.24c1.26,1.67,4.33,3.69,6.74,4.43,2.43.75,7.14,1.15,7.96.68.53-.3.5-.34-.25-.35-3.15-.04-7.41-3.38-8.33-6.52-.28-.95-.46-2.14-.4-2.65l.1-.93,1.53,1.11c2.06,1.5,5.93,3.3,8.71,4.07,4.28,1.17,9.93,1.37,13.89.48,1.19-.27,5.65-1.7,5.65-1.82,0-.05-1.49-.1-3.3-.1-1.82,0-4.18-.17-5.25-.37-6.54-1.19-11.96-5.26-14.82-11.14-1.77-3.64-2.57-7.03-2.79-11.75l-.17-3.82.8-.74c.58-.53,1.24-.77,2.4-.86,2.51-.19,3.9.7,6.49,4.12,1.18,1.55,2.8,3.29,3.6,3.87,1.69,1.2,2.97,1.55,7.84,2.15,1.93.24,3.75.52,4.05.64.29.11.53.13.53.03,0-.44-2.72-1.49-5.68-2.19-5.52-1.3-6.28-1.82-9.3-6.28-1.18-1.75-2.25-2.94-3.2-3.57-1.61-1.07-4.26-1.73-6.01-1.49l-1.18.16.18-1.12c.1-.61.44-2.02.76-3.13,2.05-7.07,10.82-8.47,18.82-2.98.7.48,2.46,1.97,3.91,3.31,6.26,5.8,10.28,7.62,16.79,7.62,1.68,0,3.93-.21,5.01-.46,4.5-1.06,8.71-4.22,10.42-7.84,1.24-2.62,1.15-3.2-.16-.99-1.37,2.33-4.03,4.76-6.62,6.07-4.73,2.38-10.85,2.15-16.66-.62-1.83-.88-3.02-1.84-6.92-5.58-4.02-3.86-5.1-4.73-7.4-5.91-3.82-1.97-6.69-2.78-9.91-2.8-1.45-.01-2.57-.12-2.5-.25.08-.13.93-.63,1.89-1.12,5.57-2.81,12.99-3.34,19.01-1.35,2.39.79,4.04,1.69,9.78,5.35,8.3,5.28,18.01,4.45,24.8-2.13,3.84-3.72,6.63-9.64,6.59-13.94l-.02-1.54-.56,1.75c-.79,2.49-2.88,6.46-4.65,8.85-5.23,7.07-12.15,9.72-19.09,7.3-2.39-.83-3.26-1.35-9.87-5.87-4.82-3.3-9.83-5.04-15.5-5.37l-3.14-.18,1.46-.83c2.22-1.27,4.49-3.46,6.95-6.71,2.58-3.41,3.63-4.37,5.95-5.46,2.28-1.07,6.58-1.11,9.18-.09,2.1.83,4.06,2.46,4.94,4.13.92,1.75.91,4.76-.02,6.63-.39.77-.47,1.09-.19.74,2.08-2.59,2.41-5.9.89-8.88-1.13-2.21-3.73-4.32-6.36-5.14-2.43-.76-6.49-.73-8.77.07-3.12,1.1-4.67,2.33-7.89,6.25-2.81,3.43-4.53,4.77-8.54,6.68-8.47,4.03-8.27,3.91-10.52,6.17-3.14,3.14-4.71,6.13-6.2,11.79l-.28,1.07-.52-1.53c-.97-2.87-1.42-5.79-1.42-9.15,0-3.95.54-6.55,1.88-9.07,1.39-2.6,2.9-4.18,7.26-7.56,2.13-1.65,4.54-3.74,5.35-4.64,2.36-2.61,4.73-6.5,6.09-9.99,1.25-3.22,1.27-3.25,3.17-4.5,3.86-2.54,9.53-3.72,15.29-3.17,9.8.93,20.03,5.24,25.1,10.57,3.18,3.35,4.54,6.38,4.58,10.25l.02,2.22.58-1.22c.71-1.51.78-4.61.15-6.74-1.49-5.02-6.7-10.15-13.5-13.3-10.47-4.84-21.62-6.03-30.08-3.21l-2.96.99,1.13-2.1c4.46-8.29,13.01-12.56,21.54-10.75,3.59.76,6.1,2.21,7.61,4.41.81,1.18.87.59.1-1.06-.86-1.84-2.57-3.44-4.85-4.52-2.55-1.21-4.5-1.52-8.31-1.34-3.82.18-6.94,1.04-10.22,2.82-1.08.58-2,1.02-2.05.97-.05-.05.63-1.18,1.5-2.51,3.1-4.69,6.97-7.67,11.56-8.88,2.88-.76,7.56-.68,9.78.18,3.26,1.25,5.34,4.1,6.07,8.34.6,3.48-.33,7.13-2.76,10.83l-.96,1.46,1.53-1.6c6.25-6.55,4.92-17.36-2.56-20.88-2.53-1.19-4.91-1.57-8.69-1.4-7.01.32-12.51,3.89-17.29,11.23-2.6,3.99-5.64,8.23-5.91,8.23-.11,0-.44-.79-.74-1.76-.9-2.92-2.47-5.35-5.68-8.83-4.57-4.94-6.14-8.66-5.64-13.38.54-5.18,2.82-9.52,7.22-13.79,4.93-4.78,11.17-7.14,17.78-6.7,5.21.34,9.67,1.72,13.93,4.32l2.29,1.39-1.38-1.21c-2.91-2.58-7.67-4.86-11.89-5.7-3.49-.7-9.06-.48-12.08.48-6.07,1.92-11.06,5.7-14.61,11.08-2.85,4.31-3.94,7.59-3.95,11.81,0,4.65,1.46,8.42,4.97,12.82,3.65,4.57,4.69,7.54,4.68,13.28-.02,6.25-1.62,10.56-5.28,14.2-2,1.99-4.86,3.68-6.98,4.12l-1.01.21,2.16-2.85c2.5-3.3,5.22-8.57,6.12-11.86,2.01-7.32.56-13.83-4.09-18.5-1.82-1.82-2.74-2.44-5.74-3.91-4.14-2.02-5.84-3.49-7.11-6.15-.74-1.55-.89-2.3-1.01-5.11-.08-1.81-.21-3.22-.3-3.13-.09.09-.33,1.07-.54,2.18-1.12,5.95,1.6,10.93,7.71,14.11,6.23,3.24,8.95,7.32,8.94,13.41-.01,6.2-2.09,11.11-7.66,18.1-5,6.28-6.36,8.67-7.2,12.66-.25,1.17-.5,2.19-.57,2.26-.23.23-1.57-3.11-1.93-4.79-.19-.89-.35-2.83-.35-4.32,0-3.44.84-6.4,3.48-12.3,2.72-6.08,3.07-7.47,3.07-12.3,0-3.64-.08-4.19-.93-6.59-1.27-3.57-2.6-5.85-6.42-11-5.24-7.05-6.83-11.15-6.82-17.57,0-8,3.18-14.11,9-17.36,4.43-2.47,10.46-3.51,16.66-2.88,2.02.2,3.75.3,3.83.22s-.99-.47-2.38-.85c-3.63-1.01-9.85-1.14-13.07-.29m18.62,2.03c-4.77,1.56-6.41,2.61-6.41,4.14,0,.66.18.9.78,1.05.43.11,1.03.08,1.34-.07.69-.33,6.3-5.62,5.93-5.59-.15.01-.89.23-1.64.47m-19.18,1.36c-.39.16-.79.55-.87.87-.09.34-.33.52-.57.43-.6-.23-3.49,1.17-4.82,2.34-1.06.94-2.94,3.37-2.94,3.81,0,.11.75-.47,1.66-1.27.92-.81,2.78-2.1,4.14-2.89,2.23-1.27,2.57-1.38,3.37-1.08.66.25,1.33.24,2.65-.06.97-.22,2.55-.55,3.52-.74.96-.19,1.75-.44,1.75-.54s-.95-.41-2.1-.69c-2.3-.55-4.67-.63-5.79-.18m-22.94,1.07c-2.74,1.55-4.9,4.45-4.42,5.94.36,1.13,1.06.61,2.16-1.61.61-1.22,1.74-2.87,2.51-3.66.77-.8,1.35-1.45,1.27-1.45-.08,0-.76.35-1.51.78m43.41,1.38c-3.85.65-7.56,3.5-9.23,7.07-.97,2.08-1.82,5.48-1.8,7.24,0,.84.17.52.77-1.49,1.12-3.78,2.2-5.78,4.25-7.85,2.13-2.15,4.68-3.49,8.29-4.37,1.54-.37,2.07-.59,1.49-.62-.5-.02-1.19-.09-1.53-.15-.34-.06-1.34,0-2.23.16m-36,.97c-1.46,1.59-2.67,5.08-2.95,8.46-.15,1.79-.13,1.87.16.76.79-3.05,1.65-5.36,2.73-7.4,1.18-2.22,1.21-3.08.06-1.83m-13.97,1.47c-3.98,3.21-5.65,5.39-5.65,7.37,0,1.25.46,1.75,1.6,1.75,1.38,0,2.18-1.12,3.39-4.76.61-1.84,1.46-3.86,1.89-4.49.99-1.45.67-1.42-1.24.12m39.45.3c-2.93,3.05-4.53,7.99-3.88,12.04.32,2,1.24,4.78,1.86,5.64.27.37.29.34.11-.15-.41-1.15-.54-8.49-.17-10.25.48-2.32,1.82-5.03,3.34-6.79.7-.81,1.27-1.6,1.27-1.75,0-.73-1.16-.15-2.53,1.27m-52.38,1.42c-4.94,4.88-6.21,11.5-3.36,17.52.9,1.9,2.94,4.71,3.22,4.43.08-.08-.2-.67-.62-1.31-1.76-2.7-2.81-8.05-2.33-11.86.46-3.61,1.36-5.65,3.86-8.78.91-1.13,1.58-2.06,1.49-2.06s-1.11.93-2.26,2.06m38.95-.64c-.67.28-1.22.75-1.32,1.13-.1.36-.68,1.01-1.31,1.45-3.44,2.4-5.3,8.47-4.19,13.68.44,2.07,2.18,6.39,2.45,6.1.06-.07-.15-1.15-.48-2.41-1.65-6.35-.74-11.83,2.63-15.86.84-1,1.34-1.33,2.08-1.38.54-.03,1.54-.35,2.22-.7.68-.35,1.78-.73,2.44-.85,2.04-.37,2.12-.61.43-1.15-1.94-.63-3.44-.63-4.95,0m26.52.26c-2.29.63-5.06,2.11-6.8,3.65-1.44,1.27-4.07,4.74-4.07,5.38,0,.15.87-.6,1.93-1.67,3.25-3.25,7.71-5.9,12.14-7.2l1.96-.58h-1.83c-1.01,0-2.5.19-3.32.42m-20.03,2.66c-2.99,5.19-2.72,11.5.66,15.35,1.12,1.28,3.07,2.36,4.02,2.22.58-.08.53-.17-.46-.76-1.51-.89-3.13-3.17-3.98-5.59-.99-2.84-.93-7.16.15-10.46.42-1.3.72-2.37.66-2.37s-.53.72-1.04,1.6m-28.11,1.74c-.54,1.78-.64,2.73-.54,5.15.11,2.57.26,3.25,1.16,5.19.88,1.9,1.61,2.81,2.25,2.81.08,0-.39-1.55-1.05-3.45-1.34-3.87-1.73-6.94-1.25-9.83.17-1.01.25-1.88.2-1.94-.06-.06-.4.88-.77,2.08m-17.84.82c-1.13,3.89-1.39,8.34-.67,11.41.83,3.55,1,2.91.98-3.89,0-3.65.08-7.19.19-7.86.31-1.81.08-1.66-.5.34m40.41-.42c-2.91,2.38-4.57,6.59-4.51,11.43.03,2.62-.06,2.78,1.21-2.05.79-3.01,2.98-7.45,4.57-9.25,1.62-1.84.91-1.92-1.27-.14m-26.57,0c-1.96,2.65-3.01,5.42-3.01,7.94,0,1.51.03,1.57.4.85.22-.42.9-1.49,1.5-2.37.82-1.2,1.16-2.05,1.31-3.36.11-.96.32-2.23.47-2.8.36-1.4.22-1.45-.67-.25m60.65-.2c-3.37.66-7.85,3.04-10.67,5.68-2.31,2.15-4.16,4.54-5.16,6.67-.28.59-.33.81-.12.49,1.35-2.03,4.18-5.25,5.67-6.44,3.56-2.86,8.33-4.7,13.55-5.22l2.04-.2,1.17,1.22c1.05,1.1,1.4,1.26,3.46,1.59,1.26.21,3.38.64,4.71.95,1.33.32,2.46.53,2.51.48.05-.05-1.48-1.15-3.41-2.43-3.83-2.55-5.58-3.23-6.95-2.72-.64.24-1.11.21-1.9-.12-1.25-.52-2.05-.51-4.88.04m-81.4,1.74c-1.64,1.02-2.82,2.09-4.05,3.71-1.8,2.36-1.39,5.06.77,5.06,1.4,0,1.82-.62,2.1-3.11.3-2.68.91-4.33,2.05-5.51.97-1.02.62-1.08-.87-.15m14.43,2.29c-.39.73-1.29,3.82-1.15,3.95.09.09,1.2-2.26,1.94-4.1.24-.59-.46-.45-.78.15m68.34-.32c-.42.08-.87.25-1,.37-.13.13,2.27,1.08,5.34,2.12,7.25,2.45,6.99,2.39,6.04,1.57-3.2-2.75-7.8-4.55-10.38-4.07m-61.18,3.02c-.89,2.82-1.09,4.73-.63,5.85.81,1.96,2.88.9,2.88-1.47,0-.61-.39-2.22-.86-3.59l-.86-2.49-.53,1.69m54.84-.72c-4.85.72-9.43,5.53-10.55,11.08-.15.74-.07.66.4-.38.88-1.93,2.8-4.63,4.47-6.28,2.58-2.54,6.76-4.11,9.88-3.72,1.09.14,1.26.1.83-.17-.86-.54-3.29-.8-5.04-.54m15.37,4.07c-6.72,1.7-11.79,6.74-13.3,13.23-.4,1.72-.27,4.8.27,6.14.27.68.31.61.32-.65.03-2.47.59-4.63,1.87-7.22,2.11-4.29,5.87-7.51,10.67-9.1,2.21-.74,7.02-.75,9.77-.02,4.42,1.16,10.4,4.87,13.18,8.17.7.83,1.33,1.44,1.4,1.37s-.32-1-.88-2.06c-2.16-4.09-6.89-7.7-12.32-9.41-2.81-.88-8.35-1.11-10.97-.44m-43.21.77c-.02,1.26.83,3.95,1.24,3.95s.36-.18-.48-2.75c-.64-1.97-.75-2.14-.76-1.2m25.62-.53c-1.81.5-3.29,1.45-4.34,2.77-1.03,1.3-1.07,1.63-.13,1.01,1.42-.93,3.93-1.44,7.12-1.44s5.69-.6,7.13-1.77c.62-.5.58-.52-1.13-.52-.97,0-3.01-.1-4.52-.22-1.89-.15-3.18-.1-4.14.17m-58.76,1.2c-2.38,2.04-.34,7.63,3.73,10.25,1.82,1.17,2.09,1.21,1.44.22-.8-1.21-1.36-3.48-1.67-6.71-.24-2.44-.42-3.17-.96-3.74-.84-.89-1.53-.9-2.54-.02m-27.57,1.2c-.92,2.47-1.23,3.83-1.44,6.5-.52,6.45,2.55,12.08,7.4,13.58,2.01.62,3.59.73,4.97.33.63-.18.48-.26-.86-.44-5.46-.75-9.04-4.24-10.14-9.89-.45-2.32-.23-7.48.42-9.84.6-2.18.43-2.31-.34-.25m5.15-.78c-.76.96-.83,2.71-.18,4.27.67,1.61,1.6,1.35,2.68-.77.46-.91.84-2.04.84-2.5,0-1.82-2.17-2.47-3.34-1m33.11,2.24c-.89.99-.45,2.67,1.07,4.04,1.08.97,6.13,3.3,7.15,3.3.16,0-.13-.45-.65-.99-.51-.55-1.63-2.04-2.49-3.33-2.34-3.51-3.83-4.4-5.08-3.01m-4.22-.1c-.52.52-.17,3.09.66,4.84,1.67,3.53,5.27,5.54,8.6,4.78l1.07-.24-1.46-.21c-3.77-.53-6.39-3.08-7.56-7.34-.48-1.77-.86-2.29-1.31-1.83m71.35.85c-3.78.86-7.74,3.54-10.33,6.98-.93,1.24-1.7,2.31-1.7,2.38,0,.07,1.15-.97,2.55-2.32,2.79-2.68,5.69-4.42,8.6-5.18,5.04-1.31,11.76.16,17.29,3.79l1.94,1.27-1.68-1.57c-4.73-4.42-11.4-6.56-16.67-5.36m-43.92,1.16c-1.06,1.51-.34,4.04,1.67,5.86,1.21,1.09,6.32,3.72,6.63,3.4.1-.1-.11-.49-.46-.86s-1.41-2.13-2.35-3.89c-2.57-4.8-4.3-6.22-5.49-4.51m23.53.06c-1.52.56-3.37,2.37-4.23,4.14-.53,1.09-.67,1.9-.66,3.83.02,2.88.86,5.06,2.77,7.18,1.3,1.44,3.97,3.65,4.42,3.65.16,0-.48-.93-1.42-2.06-.94-1.13-2.14-2.95-2.68-4.04-.83-1.69-.98-2.31-.98-4.27,0-2.98.84-4.79,2.86-6.19,1.28-.89,1.64-.99,3.63-.99,1.22,0,2.21-.11,2.21-.24,0-.38-2-1.12-3.44-1.29-.74-.08-1.79.04-2.48.29m-89.16,1.99c-1.36,6,0,11.83,3.59,15.42,2.12,2.11,3.97,2.97,6.72,3.1l2.18.11-2.18-.72c-2.77-.91-3.91-1.62-5.8-3.63-2.95-3.12-4.32-7.71-3.95-13.28.11-1.73.14-3.14.07-3.14s-.35.95-.62,2.12m6.41.56c-.41,5.45,1.56,9.17,5.61,10.6.73.26,1.39.4,1.47.32.08-.08-.41-.76-1.1-1.5-1.7-1.85-5.25-9.49-5.25-11.31,0-.24-.12-.51-.27-.6-.15-.09-.36,1.03-.47,2.5m12.35-2.26c-.05.77,1.98,4.24,3.03,5.2,1.44,1.3,3.11,1.53,3.66.51.37-.69-.25-1.21-2.23-1.84-1.16-.37-2.99-1.93-3.95-3.36-.28-.42-.51-.65-.52-.5m91.93,1.9c-.89.62-.76,1.67.27,2.17.57.27,1.88.31,4.88.14l4.11-.23-1.22-.54c-2.12-.95-5.57-2.03-6.47-2.03-.48,0-1.18.22-1.57.49m-94.22,1.27c.1.46.62,1.73,1.15,2.81,1.12,2.27,2.55,3.45,4.01,3.31,1.5-.15,1.35-1.01-.35-2.04-2.25-1.37-3.43-2.45-4.09-3.74-.71-1.38-.98-1.51-.73-.34m72.64-.5c-1.1.64-1.67,1.61-1.66,2.87,0,2.83,2.99,3.92,5.05,1.86,1.28-1.28,1.41-2.77.35-4-.79-.91-2.75-1.3-3.74-.73m16.92.85c-2.04.8-4.02,2.26-5.68,4.18-1.95,2.26-2.3,2.95-.84,1.68,2.04-1.79,5.6-3.95,7.95-4.83,1.24-.47,2.26-1.02,2.26-1.23,0-.56-2.03-.45-3.69.2m-109.81,1.89c-1.43,7.69,1.64,14.71,7.76,17.73,1.74.86,2.42,1.01,4.81,1.12,3.66.15,5.62-.53,7.63-2.69,1.68-1.8,1.87-2.61.28-1.21-5.39,4.74-14.14,2.06-17.94-5.49-1.39-2.77-1.74-4.2-1.97-8.11l-.19-3.36-.38,2.01m28.43,3.17c-1.21.53-1.54,1.47-.88,2.49.62.95,1.63,1.35,3.46,1.35,1.69,0,6.17-.67,6.17-.92,0-.28-4.93-2.66-6.26-3.02-1.47-.4-1.31-.4-2.49.11m103.39.75c0,.42,3.9,3.99,5.33,4.88,1.76,1.1,3.46,1.25,4.24.39,1.13-1.25.3-2.82-1.86-3.53-2.2-.72-7.71-1.96-7.71-1.74m-38.28.51c-.54,1.41.35,3.67,2.28,5.76.71.77,1.34,1.35,1.4,1.29.06-.06-.08-.58-.31-1.15-.23-.57-.59-1.99-.79-3.15-.2-1.16-.49-2.37-.66-2.67-.37-.68-1.67-.73-1.92-.07m24.7,1.32c-.89.2-.89.21.41.43,2.18.37,4.04,1.54,6.53,4.1,2.93,3.02,3.67,3.65,2.79,2.37-.35-.5-1.08-1.78-1.64-2.83-1.91-3.62-4.43-4.89-8.09-4.06m-121.92,3c.38,3.19.86,4.86,1.64,5.71.88.95,1.78,1,2.39.14.61-.88.21-1.92-1.52-3.94-.76-.88-1.64-2.14-1.97-2.79-.33-.65-.64-1.18-.69-1.18s.02.93.15,2.06m117.03-1c-1.18.42-2.17.77-2.21.77-.04,0-.08.1-.08.23s.58.26,1.3.31c.71.04,2.22.3,3.36.57,2.35.56,3.46.4,3.75-.53.31-.96-.66-1.73-2.45-1.94-1.19-.14-2,0-3.66.59m28.85,1.05c0,.19.65.63,1.45.96.8.33,1.97.89,2.6,1.23,1.62.88,1.42.51-.48-.93-1.66-1.26-3.56-1.93-3.56-1.26m-71.24,1.25c3.34,4.88,4.33,9.85,3.01,15.11-.55,2.17-1.97,5.36-2.83,6.33-.26.29-.35.53-.19.52.51-.02,3.26-3.79,4.16-5.69.49-1.04,1.04-2.8,1.22-3.92.75-4.54-1.33-9.81-5.03-12.74l-1.27-1,.94,1.37m3.58.92c2.77,4.28,3.54,6.55,3.54,10.36,0,4.14-1.23,7.45-4.26,11.46-.85,1.12-1.54,2.1-1.54,2.18,0,.45,1.73-1.12,3.18-2.9,5.36-6.55,5.41-14.75.13-20.24-.85-.89-1.33-1.27-1.06-.85m60.2.03c1.16,1.29,2.98,2.15,6.49,3.07,1.96.51,4.12,1.2,4.79,1.52l1.22.59-1.2-1.09c-1.66-1.5-3.87-2.51-6.66-3.04-1.3-.25-3.01-.73-3.79-1.08l-1.43-.63.59.66m-85.58,1.61c-2.62.67-5.49,2.27-7.59,4.23-2.06,1.93-2.44,2.7-.66,1.34,1.62-1.23,5.34-2.82,7.98-3.4,3.05-.67,7.26-.5,9.58.4.88.34,1.6.51,1.6.37,0-.44-1.94-1.9-3.32-2.52-1.7-.76-5.44-.96-7.59-.42m-54.8,2.63c-.76,7.83,4.49,14.75,11.54,15.2,2.42.15,4.6-.4,5.93-1.5.55-.45.6-.58.2-.45-1.36.44-3.95.53-5.83.21-2.82-.49-5.06-1.56-6.9-3.28-2.63-2.46-3.74-4.85-4.37-9.42l-.38-2.75-.19,1.99m141.6-.63c1.02,1.74,3.3,3.79,5.95,5.34,1.41.82,3.01,1.83,3.56,2.23,1.26.93,1.3.39.12-1.45-1.34-2.08-2.45-2.95-5.25-4.13-1.41-.59-3.11-1.51-3.77-2.03l-1.19-.95.58,1m-108.32.49c-.46.25-1.18,1.05-1.61,1.78-.72,1.23-2.4,5.69-2.15,5.69.06,0,1.51-1.35,3.21-3,2.72-2.63,3.08-3.11,3-3.89-.08-.7-.27-.91-.87-.96-.42-.04-1.14.13-1.59.39m-27.41.65c0,.65,2.05,2.6,3.39,3.22.57.26,1.52.57,2.11.68,1,.19.96.14-.57-.72-.9-.51-2.31-1.55-3.12-2.31-1.63-1.53-1.81-1.61-1.81-.87m133.15.7c.4.75,2.72,3.43,5.16,5.95,2.44,2.53,4.87,5.14,5.38,5.82,1.08,1.42,2.54,4.2,2.54,4.86,0,.25.11.52.25.61.44.27-.2-3.31-.87-4.88-1.07-2.49-2.82-4.49-6.64-7.54-2-1.6-4.29-3.64-5.09-4.54l-1.46-1.63.72,1.36m-22.09-.31c-2.97.95-6.29,3.29-7.93,5.59l-.68.95,1.45-1c2.18-1.5,5.92-3.28,8.03-3.82,3.71-.95,6.85-.47,9.85,1.51l1.65,1.09-.76-1.01c-.42-.56-1.42-1.45-2.22-2-2.8-1.9-6.11-2.37-9.39-1.32m-73.19,2.36c-1.43,2.76-4.1,5.55-6.65,6.94l-2.06,1.13,1.46-.19c4.12-.53,7.32-3.43,8.17-7.4.54-2.52.22-2.69-.91-.48m-38.95,1.77c1.61,3.64,3.56,5.35,6.97,6.09.97.21,3.88-.11,3.88-.42,0-.11-.69-.39-1.54-.6-1.78-.46-6.35-3.35-8.58-5.44l-1.53-1.43.8,1.81m20.77-.8c-.34.11-1.36.59-2.27,1.07-1.08.56-2.27.91-3.48,1.04l-1.82.17,1.15.59c2.42,1.24,5.94.99,7.78-.56,1.1-.93,1.17-1.44.25-2.08-.73-.51-.71-.51-1.61-.21m93.37.33c-.36.16-.74.55-.85.87-.14.44-.68.69-2.09.98-2.26.46-3.16,1.04-1.14.73.76-.12,1.7-.33,2.1-.48.58-.21.82-.14,1.16.35.33.47.77.62,1.89.62,1.66,0,4.56-.77,5.19-1.37,1.01-.98-4.49-2.47-6.27-1.7m19.99,2c.37.46,2.44,2.75,4.62,5.08,4.16,4.46,5.83,7.07,6.4,10.04.23,1.17.27,1.24.33.46.23-3.28-.85-6.15-3.26-8.73-1.77-1.9-9.03-8.04-8.09-6.84m-85.54,1.65c-.41.16.04.34,1.55.61,2.65.47,4.84,1.47,6.47,2.94,1.49,1.35,1.67.83.33-.99-1.31-1.78-3.54-2.84-5.93-2.81-1.02.01-2.11.12-2.43.25m98.63.24c-.57.57-.14,2.78.98,4.96.65,1.27,1.44,3.13,1.75,4.13l.57,1.81.21-1.2c.12-.66.22-2.45.23-3.98.03-4.14-.75-5.92-2.57-5.92-.53,0-1.06.09-1.17.2m-102.4,2.32c-1.3,1.33-2.09,2.83-1.63,3.11.14.09.44-.28.66-.81.22-.53.85-1.56,1.41-2.29.55-.72.97-1.32.92-1.32s-.66.58-1.35,1.3m85.71-1.19c0,.06,1.16.81,2.58,1.68,3.33,2.03,5.82,4.36,7.29,6.8.65,1.07,1.08,1.6.96,1.18-.75-2.75-3.02-5.64-5.69-7.24-1.59-.95-5.15-2.63-5.15-2.42m-81.46,1.25c.11.12.66.46,1.22.75,1.5.8,2.39,2.28,2.39,3.97,0,1.42-.17,1.84-2.23,5.54-1.41,2.53-1.87,4.75-1.42,6.92.45,2.16.74,2.21.77.13.03-2.05.75-3.82,2.95-7.17,1.27-1.94,1.59-2.69,1.7-4.03.08-.9.05-1.98-.05-2.4-.24-.98-1.57-2.54-2.59-3.07-.91-.47-3.05-.97-2.74-.65m-2.47,2.8c-.88,1.11-.79,2.14.26,3.19,1.01,1.01,1.51,1.09,2.75.44.97-.5,1.24-1.02,1.24-2.33,0-2.05-2.95-2.96-4.25-1.31m63.85.59c-.84.59-.86,1.35-.06,2.21.95,1.02,1.93,1.13,3.5.37.76-.37,1.38-.77,1.38-.9,0-.44-1.18-1.3-2.35-1.71-1.5-.54-1.66-.54-2.47.03m-4.36.25c-1.87.5-3.28,1.42-4.95,3.2-1.23,1.31-2.67,3.59-2.67,4.21,0,.12.42-.35.93-1.04.98-1.34,3.96-3.73,5.78-4.64.59-.3,1.8-.71,2.68-.92,1.72-.4,2.02-.75.92-1.04-.88-.24-1.03-.22-2.69.22m-107.14.19c0,.7,1.36,3.46,1.94,3.94.81.67.94.16.22-.84-.5-.72-.97-1.47-1.41-2.23-.41-.72-.75-1.11-.75-.86m39.09.83c-1.31,1.58-1.97,3.46-1.72,4.82.25,1.33,1.14,2.29,2.12,2.29.9,0,1.12-.71.78-2.49-.35-1.81-.34-4.03.01-4.97.43-1.13-.1-.97-1.19.36m3.51-.16c-.6.86-.61,2.99-.02,4.41.58,1.38,3.05,4.86,3.6,5.08.35.14.35-.09,0-1.4-.22-.86-.4-2.71-.4-4.1,0-3.3-.52-4.66-1.8-4.66-.6,0-1.08.23-1.39.68m77.99,1.29c.42.45,1.52,2.07,2.44,3.6.92,1.53,2.04,3.04,2.48,3.37,1.48,1.08,2.77-.1,2.27-2.08-.44-1.74-4.19-4.6-7.2-5.49l-.76-.22.76.82m-105.02.17c-2.76.38-5.05,1.59-6.15,3.26-.67,1.02-.75,2.71-.14,2.94.48.18.95-.27,2.46-2.4,1.2-1.69,3.12-3.1,4.63-3.38.57-.11,1.11-.32,1.2-.46.09-.15.06-.25-.08-.23-.14.02-1,.14-1.93.27m113.52,2.74c1.98,3.71,2.65,6.29,2.62,10.23-.01,2.34-.17,3.75-.52,4.66-.66,1.73-.41,1.65.5-.15,1.6-3.16,1.76-7.15.44-10.7-.76-2.04-2.27-4.48-3.44-5.56-.77-.71-.75-.6.39,1.53m-109.7-1.09c-2.64.85-5.11,2.09-5.94,2.97-.62.67-.79,1.61-.44,2.51.25.66,1.89.62,2.93-.07,1.11-.74,6.37-6.17,5.93-6.14-.19.02-1.31.34-2.49.72m87.32-.3c-1.22.44-1.99,1.17-1.99,1.87,0,1.54,1.3,2.15,3.14,1.46.71-.26,2.18-.8,3.27-1.2,1.09-.4,1.81-.73,1.6-.74-.21-.01-.9-.35-1.53-.76-1.5-.98-2.98-1.19-4.49-.64m-81.36.07c-.57.21-1.22,1-1.22,1.5,0,1.37,2.37,1.68,6.82.89,2.72-.49,3.08-.67,1.84-.92-.48-.1-2.07-.52-3.53-.93-2.72-.77-3.11-.82-3.91-.54m90.11.27c-1.77.75-1.11,2.6,1.11,3.12.62.15,2.02.48,3.12.74,1.09.26,2.04.43,2.1.36.27-.26-1.43-2.32-2.71-3.29-1.7-1.27-2.39-1.46-3.62-.94m-112.79,1.46c-.23.59.31,2.78,1.02,4.18,1.07,2.09,3.11,1.99,3.29-.15.12-1.38-.44-2.31-2.14-3.54-1.38-1-1.93-1.12-2.18-.49m131.06,1.41c1.35,2.97,1.94,5.61,1.95,8.7.01,4.46-1.36,7.32-4.98,10.38-.99.84-1.76,1.57-1.71,1.62.05.05,1-.27,2.11-.72,5.15-2.06,7.86-7.5,6.63-13.27-.48-2.24-2.28-5.81-3.73-7.39l-1.18-1.29.9,1.99m-61.35-.92c-.71.71-1.1,1.58-1.69,3.72l-.39,1.43,1.87-2c1.3-1.39,1.87-2.25,1.87-2.79,0-1.02-.82-1.2-1.67-.35m-49.72.32c-.39.33-1.24.74-1.87.91-1.26.34-2.01,1.01-1.69,1.51.61.98,3.06-.34,4-2.16.53-1.03.51-1.05-.43-.26m79.78.7c-.96.96-1.85,3.19-1.59,3.97.07.2.4-.19.75-.86.35-.67,1.06-1.75,1.58-2.41,1.55-1.94,1.01-2.45-.74-.7m-108.51-.68c-.05.57,1.44,4.43,2.46,6.41,2.38,4.59,6.04,8.21,10.5,10.38,3.39,1.65,6.42,2.22,10.82,2.04,3.72-.15,5.91-.75,8.33-2.27,1.28-.8,1.55-1.51.46-1.19-4.85,1.41-5.34,1.49-9.54,1.51-3.56.02-4.67-.09-6.66-.66-6.98-2-11.47-6.06-15.04-13.6-.73-1.54-1.33-2.72-1.34-2.62m41.19,1.98c-.58.69-.01,2.04.99,2.39,1.59.56,2.49-1.41,1.09-2.39-.86-.61-1.58-.61-2.08,0m71.59.41c-1.51.68-3.39,2.81-3.8,4.29-.17.6-.3,1.64-.3,2.31v1.22s.72-1.53.72-1.53c1.43-3.03,4.43-4.76,8.65-4.98,2.74-.14,2.9-.39.88-1.3-1.66-.75-4.52-.76-6.16-.01m-81.65.04c-2.91.34-4.38.81-5.16,1.64-.56.6-.63.85-.36,1.36.74,1.38,2.1,1.16,6.24-1.03,1.37-.72,3.04-1.42,3.71-1.55,1.12-.21,1.16-.25.46-.45-.96-.27-2.34-.26-4.89.03m14.65.38c0,.7,1.87,2.67,3.16,3.33.87.44,1.99.68,3.56.76,2.53.12,2.62.22-1.37-1.55-1.17-.52-2.72-1.39-3.44-1.94-1.39-1.06-1.91-1.22-1.91-.6m82.43.06c0,.46,1.4.99,1.74.66.3-.3-.55-1.11-1.16-1.11-.32,0-.57.2-.57.45m16.6,1.55c2.81,5.74,2.15,10.83-1.88,14.52-1.98,1.81-1.69,1.93.74.3,2.98-2,4.6-5.12,4.29-8.23-.18-1.73-1.96-5.74-3.28-7.36-.52-.64-.5-.52.13.78m-41.01,0c.16.43.3,1.67.3,2.75,0,1.57.13,2.09.62,2.58.48.48.75.55,1.2.31,1.38-.74,1.13-2.68-.63-4.9-1.32-1.67-1.96-1.99-1.49-.74m17.85-.58c-.93.25-1.21.63-.81,1.12.25.3,1.3.48,3.4.58,2.59.12,3.32.28,4.88,1.06,1.01.5,1.84.8,1.84.66,0-.46-2.88-2.37-4.27-2.83-1.57-.52-4.14-.82-5.04-.58m11.12.73c-.74.74-.64,1.55.5,4.13.4.9.89,2.3,1.1,3.1l.37,1.45.4-1.36c1.01-3.46.77-6.96-.52-7.65-.82-.44-1.14-.38-1.85.33m-117.01.47c.26.39,1.21,1.08,2.13,1.52,1.38.68,1.92.78,3.2.63,1.64-.19,3.33-1,3.56-1.71.11-.33-.08-.38-.89-.21-3.06.63-4.69.58-6.59-.19l-1.87-.76.47.71m137.18.31c0,.16.41,1.59.9,3.18.95,3.05,2.31,5.53,3.33,6.07.46.25.04-.85-1.69-4.48-2.36-4.94-2.54-5.27-2.54-4.77m-140.74.39c0,.54,2.14,2.14,3.27,2.46,1.89.52,2.16.35.64-.39-.78-.39-1.91-1.07-2.5-1.52-1.15-.87-1.42-.98-1.42-.54m102.43,1.08c-1.46.71-3.28,1.98-2.85,2,.11,0,1.24-.41,2.49-.91,1.26-.5,2.54-.92,2.85-.93.31,0,.97-.2,1.47-.43q.91-.42-.76-.44c-1.19-.02-2.13.19-3.21.72m-14.63,1.57c-.48,1.06-1.62,2.57-2.97,3.97-1.21,1.24-2.09,2.36-1.97,2.48.38.38,4.14-1.78,4.95-2.83.58-.76.81-1.51.94-3.16.1-1.19.1-2.17,0-2.17s-.53.77-.96,1.71m-101.81,1.31c.36,4.21,2.45,8.29,5.96,11.63,3.93,3.74,8.26,5.5,13.53,5.5,6.11,0,11.81-2.96,14.2-7.38l.88-1.63-1.05,1.08c-5.43,5.6-12.26,7.29-19.58,4.86-4.33-1.44-8.69-4.9-11.03-8.76-1.13-1.86-2.65-5.78-2.65-6.84,0-.3-.11-.61-.24-.69-.13-.08-.15.92-.04,2.21m2.87-.88c.13.42.8,1.93,1.49,3.36,1.6,3.31,4.17,6.11,5.6,6.11.69,0,1.01-.17,1.15-.61.33-1.05-.14-1.8-1.93-3.1-2.22-1.61-3.78-3.08-5.32-4.99-.87-1.09-1.16-1.31-.99-.76m101.79,3.46c-1.07.99-2.16,1.96-3.28,2.89-1.41,1.17-1.58,1.44-1.58,2.51,0,.88.16,1.28.6,1.52,1.92,1.03,4.21-1.63,5.64-6.56.28-.96.46-1.79.41-1.84-.05-.05-.86.61-1.79,1.48m-92.18-.56c0,.29,3.56,1.93,5.5,2.53,2.96.91,5.34,1.09,8.27.64l2.57-.4-3.82-.21c-3.62-.2-9.95-1.51-11.6-2.39-.63-.33-.92-.39-.92-.16m24.83,1.34c-1.79.84-2.37,2-1.45,2.92.68.68,2.01.6,4.03-.24.96-.4,2.5-.9,3.42-1.12l1.68-.4-1.68-.77c-2.23-1.02-4.36-1.16-6.01-.39m86.95.47c1.76.95,3.37,2.81,4.59,5.28.79,1.61.91,2.15.8,3.59-.14,1.66-.13,1.68.46,1.15.33-.29.85-1.08,1.16-1.76,1.85-4.03-1.49-8.37-6.83-8.88l-1.6-.15,1.42.77m29.72.81c-.29.58-1.01,1.7-1.58,2.49-1.32,1.81-1.68,3.03-1.27,4.22.68,1.94,2.96,1.44,4.15-.92.97-1.92.82-4.67-.34-6.26-.4-.55-.45-.52-.96.47m-32.07,1.04c-.92.92-1,2.54-.17,3.57.46.57.88.72,2.01.72,1.75,0,2.6-.84,2.6-2.57,0-2.29-2.79-3.36-4.44-1.71m-28.4.13c-2.11,1.29-5.17,5.81-4.43,6.55.27.27.92.06,2.69-.87,2.73-1.43,4.96-3.4,4.96-4.39,0-1.83-1.41-2.4-3.22-1.29m24.35,1.11c-.5.42-1.35,1.45-1.89,2.29-.55.85-1.54,1.86-2.25,2.29-1.88,1.13-.54.92,1.74-.27,3.73-1.94,5.11-3.48,4.17-4.62-.51-.61-.72-.58-1.77.31m-107.07,2c-.3.49.61,1.34,2.55,2.36,2.68,1.42,4.7,1.9,7.82,1.86l2.77-.04-1.97-.28c-2.73-.39-6.18-1.6-8.66-3.02-2.36-1.36-2.23-1.31-2.5-.88m86.95,1.51c-3.28,1.16-5.83,2.76-7.79,4.88-1.05,1.13-2.24,2.66-2.65,3.4l-.74,1.34,1.61-1.76c2-2.19,5.78-5.03,9.1-6.83,3.26-1.78,3.39-2.06.47-1.02m48.46.98c-1.6.81-2.32,1.91-2.03,3.08.26,1.03,1.51,1.4,2.61.79,1.16-.65,2.21-2.38,2.1-3.46-.12-1.2-.88-1.32-2.68-.4m-6.25.35c-.83.83-.93,1.29-.47,2.02.26.41.38.41,1.11,0,1.14-.64,1.57-1.39,1.16-2.04-.51-.81-.97-.81-1.8.02m-138.17,1.09c1.43,1.71,2.85,2.76,3.75,2.76.91,0,.59-.75-.6-1.38-.62-.33-1.69-1.02-2.37-1.53-2.08-1.57-2.2-1.55-.78.15m46.09-.48c-1.85.5-3.99,1.78-5.02,3-1.05,1.25-.61,1.4,1.29.44,4.97-2.52,11.12-2.3,16.27.57l1.37.76-1.28-1.17c-3.53-3.23-8.64-4.68-12.64-3.61m71.53.67c-.96.68-.89,1.85.16,2.38.92.47,9.32.89,9.06.46-.31-.5-3.99-2.36-5.6-2.83-2.08-.61-2.76-.61-3.62-.01m-30.84.04c-.36.14-2.07,3.15-1.79,3.15.1,0,1.36-1.77,2.12-2.97.26-.42.26-.42-.33-.18m25.15.06c-.17.27,3.82.71,4.09.45.08-.08-.06-.27-.31-.43-.57-.36-3.56-.38-3.78-.03m37.11.26c-.02.2-.87,1.25-1.88,2.33-1.01,1.08-1.83,2.04-1.83,2.15s.46.19,1.03.19c1.98,0,3.21-1.78,2.86-4.15-.07-.49-.15-.72-.18-.52m-14.72,1.19c-.71.73-1.47,1.4-2.27,2.02-1.2.9-1.2.91-.3.71,2.54-.58,4.73-2.3,4.32-3.38-.26-.69-.58-.57-1.74.65m-104.85.89c-.5.24-2.37,1.1-4.14,1.92-2.68,1.24-3.29,1.65-3.62,2.43-.51,1.23-.22,2.06.88,2.51,1.92.79,4.48-1.17,7.11-5.46,1.22-1.99,1.2-2.07-.23-1.4m15.14.67c-1.88.66-3.77,2.65-4.58,4.81-.8,2.14-.67,2.92.2,1.23.94-1.82,2.92-3.93,5.01-5.32,1.93-1.29,1.71-1.54-.63-.72m-38.48.6c.47,1.35,2.52,3.88,3.39,4.18,1.01.36,2.4,0,2.4-.6,0-1.02-.73-1.71-3.14-2.95-.91-.47-1.82-.93-2.73-1.39-.12-.06-.09.29.08.76m131.24-.2c-2.38.4-3.55,1.61-3.14,3.23.36,1.44,2.6,1.81,4.65.76,1.27-.65,3.4-2.84,3.4-3.5,0-.71-2.27-.94-4.91-.49m-88.66.72c-1.23.54-1.77,1.24-1.53,2,.27.85,1.53.81,4.54-.15,1.32-.42,3.08-.78,3.91-.8,1.8-.04,1.61-.33-.64-.99-1.99-.58-5.02-.61-6.28-.06m-11.52,1.41c-.94.84-2,1.99-2.35,2.56-.64,1.04-.85,2.32-.37,2.32.64,0,1.96-1.4,2.68-2.85.43-.86,1.12-2.02,1.53-2.57,1.08-1.43.48-1.22-1.49.54m-24.05-.18c0,.38,3.78,2.57,4.74,2.75,1.15.21,2.9-.02,2.9-.39,0-.11-1.23-.5-2.73-.86s-3.17-.87-3.71-1.14c-1.04-.52-1.19-.57-1.19-.36m116.32.76c.72.4,2.72.69,3.37.48,1.27-.4.5-.76-1.62-.75-1.36,0-2.04.11-1.76.27m-124.83.33c-.06,1.17.93,4.69,1.8,6.41,2.15,4.26,5.81,6.78,10.12,6.98,3.39.15,5.11-.49,7.39-2.76.99-.99,1.71-1.88,1.6-1.99-.11-.11-.57.17-1.03.61-1.12,1.08-3.84,2.26-5.76,2.51-6,.78-11.29-3.32-13.57-10.53-.29-.92-.54-1.47-.55-1.22m122.09.89c4.97,4.29,12.83,4.89,17.1,1.31.68-.57.54-.55-1.22.18-1.74.72-2.39.82-5.19.82-2.8,0-3.59-.14-6.26-1.03-1.68-.56-3.6-1.28-4.27-1.61l-1.22-.59,1.07.92m-82.74-.06c-1.48.54-2.29,2.25-1.47,3.08,1.25,1.25,4.45-1.14,3.8-2.83-.18-.46-1.4-.59-2.33-.25m-30.99,1.08c.33.21,1.22,1.04,1.96,1.84,1.48,1.59,3.35,2.36,5.72,2.36,1.63,0,4.16-.53,4.81-1.01.4-.29.04-.37-1.87-.39-1.9-.02-2.83-.22-4.68-.97-1.27-.52-2.85-1.04-3.51-1.16-.66-.12-1.61-.41-2.11-.64-.56-.26-.68-.27-.31-.04m-2.84,2.29c2.88,4.19,5.98,5.76,10.16,5.13,1.82-.27,1.77-.65-.12-.9-1.81-.24-6.25-2.4-8.84-4.31-1.02-.75-1.94-1.37-2.03-1.37s.28.65.83,1.45m95.81-.25c1.2.98,3.7,2.15,4.6,2.15,1.59,0,1.97-1.56.52-2.1-.38-.14-1.86-.36-3.29-.47l-2.6-.21.76.63m-69.78.31c-.35.14-1.02.71-1.48,1.27-1.13,1.35-.96,3.08.42,4.32,1.4,1.25,3.1,1.18,4.47-.2.67-.67,1.04-1.33,1.04-1.86,0-1.04-.84-2.84-1.49-3.18-.85-.45-2.3-.62-2.96-.34m116.3,1.53c-2.11,1.21-3.25,2.68-4.24,5.47-.45,1.28-.96,2.5-1.13,2.71-.21.26-.21.38,0,.38.52,0,2.45-2.43,3.88-4.92.74-1.29,1.82-2.83,2.39-3.44,1.26-1.33,1.13-1.36-.91-.2m-95.67-.39c-8.11,1.36-13.73,8.78-13.83,18.26-.04,4.17.77,6.21,3.24,8.21.99.8,1.47.95,3.28,1.05,1.83.1,2.35,0,3.79-.7,2.67-1.3,4.27-3.47,5.85-7.88,1.25-3.51,2.51-5.62,4.42-7.39,2.03-1.88,4.39-2.91,6.67-2.91h1.49l-.27-.94c-.71-2.46-3.47-5.64-5.74-6.6-2.73-1.16-6.09-1.57-8.91-1.1m55.73.36c.33.31,3.5,1.26,3.5,1.06,0-.07-.58-.4-1.3-.72-1.35-.61-2.72-.82-2.2-.33m7.2,2.06c2.46,3.53,4.84,4.47,4.84,1.92,0-1.12-.91-1.98-3.21-3.03-3.49-1.6-3.51-1.58-1.64,1.11m-78.02,1.37c-2.55,4.32-6.71,5.48-9.58,2.68-.54-.53-.98-.78-.98-.57,0,.79,1.27,2.39,2.26,2.86,3.03,1.44,6.36-.37,8.55-4.65.67-1.3.47-1.55-.26-.32m12.98.14c-2.42.65-4.48,1.88-6.09,3.64-1.52,1.66-2.9,4.2-3.24,5.95-.19,1-.14.95.78-.61,2.02-3.45,6.01-6.45,9.91-7.47,2.26-.59,6.5-.6,8.67-.02.92.24,1.71.4,1.76.35.05-.05-.7-.45-1.67-.88-3.21-1.43-7.03-1.79-10.12-.96m60.42-.37c0,.39,1.71,2.73,2.64,3.61,1.53,1.44,3.94,1.9,5.81,1.1l.86-.37-1.07-.1c-2.65-.26-4.94-1.36-7.1-3.39-.63-.6-1.14-.98-1.14-.85m9.91,2.35c-.11.18.11.66.49,1.07.5.54,1.02.74,1.87.74,1.15,0,3.53-.78,3.25-1.06-.17-.17-4.38-1.07-4.99-1.07-.23,0-.51.15-.62.33m-29.45.77c-1.09.42-2.09.87-2.23,1.01s.63.33,1.7.43,2.87.41,4,.7c2.26.57,3.23.37,3.85-.78.28-.52.21-.76-.43-1.39-.67-.67-1.02-.76-2.84-.75-1.45.01-2.67.24-4.06.78m11.76,1.53c.47.99.86,2.6,1.06,4.38.34,3,.58,3.71,1.49,4.34.31.22.79,1.15,1.06,2.08.62,2.09,1.25,3.1.95,1.53-.15-.71-.36-1.41-.63-2.09-.32-.77-.34-1.18-.08-1.65.88-1.65-.69-5.9-3.21-8.64l-1.38-1.51.74,1.56m27.57-.88c-3.05.1-3.82.42-3.43,1.41.11.29.54.5,1.04.5.89,0,4.84-1.37,5.33-1.85.16-.15.23-.25.15-.22-.08.04-1.46.11-3.09.16m-77.58.7c-1.66.28-4.03,1.56-4.49,2.42-.67,1.24-.23,1.21,1.65-.14,1.08-.77,2.69-1.66,3.59-1.98,1.74-.62,1.56-.69-.75-.31m79.11,1.48c-3.25,1.59-3.92,2.04-3.92,2.67,0,.69,1.35.48,2.66-.42,1.2-.82,4.65-3.76,4.36-3.71-.08.01-1.47.67-3.1,1.47m-76.58.08c-3.31.54-6.41,2.77-6.41,4.61,0,.8,1.11,1.78,1.75,1.56.3-.11,1.78-1.44,3.29-2.98,1.51-1.53,3.02-2.95,3.36-3.14.73-.43.39-.43-1.98-.05m33.57.46c.75.26,2.15,1.01,3.11,1.67,1.8,1.22,2.82,1.48,3.09.79.49-1.27-3.37-3-6.59-2.95-.94.01-.93.03.39.49m25.65-.2c0,.52,2.59,1.8,3.67,1.81,5.62.07,7.1-.01,7.94-.45,1.08-.56,1.15-.93.22-1.18-1.78-.48-5.24.05-5.91.9-.29.37-.58.36-2.06-.02-.95-.25-2.21-.65-2.79-.9s-1.07-.32-1.07-.17m-16.36.76c-.24.96.53,2.2,1.62,2.62,1.11.42,1.75-.23,1.46-1.52-.39-1.77-2.71-2.6-3.09-1.1m-72.39-.05c-1.47.4-2.65,1.33-1.29,1.01,1.02-.24,3.03-1.08,3.03-1.27s-.19-.16-1.74.26m-6.35,1.38c-.84.48-2.21,1.26-3.05,1.75l-1.53.89,1.16.1c.64.05,2.27-.04,3.61-.2,2.54-.31,3.92-1.07,3.92-2.18,0-1.45-1.9-1.61-4.12-.35m8.59,1.15c-2.04,2.25-3.98,3.35-6.71,3.85l-1.88.34,1.32.24c2.37.42,5.12-.38,6.86-2,.78-.72,2.56-4.04,2.3-4.29-.06-.06-.91.78-1.9,1.86m16.9-.85c-.98.99-1.16,2.03-.5,2.94.95,1.29,3.41-.9,3.19-2.84-.14-1.24-1.5-1.29-2.69-.1m-12.77,1.42c-3.52,5.35-9.22,7.25-16.38,5.45-3.06-.77-5.78-2.27-9.01-4.96l-1.67-1.4,1.06,1.34c1.42,1.79,4.81,4.41,7.12,5.51,3.12,1.48,5.43,1.94,8.99,1.79,2.92-.13,3.31-.22,5.49-1.33,2.79-1.42,4.25-3.14,5.24-6.16.36-1.09.6-2.03.55-2.08-.06-.06-.69.78-1.4,1.86m108.38-1.13c-.56.45-2.2,1.44-3.64,2.2-2.85,1.5-4.08,2.73-3.55,3.58.95,1.5,2.35,1.24,4.41-.81,1.4-1.4,3.31-4.1,3.74-5.28.24-.67.27-.67-.96.32m-45.31,1c-.9.52-.68,2.04.42,2.98.53.45,1.77,1.52,2.76,2.39,1.84,1.62,3.91,2.55,5.57,2.53h.94s-1.1-.41-1.1-.41c-2.36-.84-3.62-2.15-5.19-5.41-1.04-2.14-2.13-2.82-3.39-2.08m6.4,1.53c-.39.22-.49.51-.34.98.25.81.68,1.11,1.57,1.12.82,0,.91-.76.21-1.76-.53-.76-.67-.79-1.45-.34m10.79,1.04c-.03,1.42,3.99,5.95,6.36,7.15,3.07,1.57,8.11,2.03,11.8,1.08,2.86-.73,6.54-2.64,8.23-4.26.84-.8,1.25-1.25.92-1-3.75,2.85-10.7,4.59-15.57,3.91-4.62-.64-8.64-2.92-11.07-6.28-.36-.5-.67-.78-.67-.61m-51.47,1.53c-3.17,1.88-4.53,3.83-3.91,5.61.21.59.52.82,1.23.89,1.15.11,1.82-.7,2.83-3.45.37-1.01,1.01-2.35,1.42-2.98.41-.63.64-1.14.5-1.14s-1.07.48-2.07,1.07m-15.28.12c-1.31.79-2.56,3.39-2.56,5.29,0,1.72.53,2.13,1.79,1.39,1.74-1.02,3.77-5.32,3.2-6.79-.24-.63-1.29-.59-2.44.11m-4.89.18c-.24.63.09,1.37.61,1.37.24,0,.6-.21.81-.46.3-.37.3-.55,0-.92-.21-.25-.57-.46-.81-.46s-.51.21-.61.46m9.8.67c-.81,1.89-2.33,6.05-2.14,5.87.63-.63,3.28-5.45,3.33-6.04.08-1.19-.65-1.08-1.18.17m57.88-.66c-.02,1.15,1.1,4.64,1.96,6.1,2.8,4.78,8.8,7.35,14.3,6.13,2.23-.49,6.37-2.26,6.75-2.87.11-.17-.63,0-1.63.4-6.3,2.47-12.33,1.62-16.67-2.35-1.93-1.77-2.68-2.9-3.84-5.85-.47-1.2-.87-1.9-.87-1.57m9.64.42c2.6,1.21,6.44,1.95,9.41,1.8,2.52-.13,5.36-.88,5.36-1.41,0-.11-1.54-.15-3.43-.09-2.98.09-9.52-.32-11.83-.74-.48-.09-.3.08.49.45m-29.57,1.1c.32.5.84,1.57,1.14,2.38.36.95.65,1.36.85,1.17.5-.5-.01-1.71-1.33-3.12-.89-.95-1.08-1.07-.66-.43m23.72-.15c.35,1.19,1.66,3.32,2.83,4.62,1.33,1.48,4.25,2.92,6.65,3.29,1.93.3,2.66.21,1.18-.14-2.79-.66-7.14-3.8-9.66-6.98-.87-1.1-1.16-1.32-1-.78m-79.8,2.23c-.85.92-2.15,1.85-3.51,2.51-2.16,1.05-2.86,1.55-3.99,2.86l-.61.7,1.22-.22c2.58-.46,6.24-3.1,7.66-5.51,1.12-1.91.81-2.05-.77-.35m31.16-.52c-.1,1.33-2.04,4.6-3.76,6.32-2.02,2.02-4.57,3.33-7.6,3.88-1.79.33-4.92.24-6.31-.18-.3-.09-.03.12.59.46.62.35,1.99.75,3.05.9,4.72.66,9.38-1.19,11.98-4.77,1.22-1.68,2.42-5.09,2.22-6.37-.08-.57-.15-.65-.18-.24m-50.47,1.04c1.65,1.5,3.94,2.63,6.23,3.09,2.2.44,4.92-.15,7.14-1.54,1.77-1.11,1.68-1.15-.68-.29-3.57,1.29-7.03.81-12.49-1.75l-1.53-.72,1.33,1.21m77.34,1.62c-.48.57-.77,2.76-.53,4.01.3,1.59,1.54,2.93,2.72,2.92,1.14,0,1.51-.22,1.99-1.12.84-1.59-.14-4.21-2.07-5.51-1.18-.8-1.65-.86-2.11-.3m-57.41,2.14c-1.68,2.44-4.06,3.57-7.53,3.57-1.89,0-2.5-.15-4.21-1.01-2.07-1.04-2.28-.87-.62.52,1.51,1.26,3.06,1.77,5.37,1.77,3.62,0,6.32-1.82,7.75-5.24.53-1.27.3-1.15-.77.4m22.91.21c-.73.66-2.16,1.62-3.18,2.12-1.39.7-1.66.93-1.09.93,1.73,0,6.05-2.85,6.05-3.99,0-.51-.44-.27-1.78.94m-21.36,1.03c-1.55,2.91-4.57,5.09-7.72,5.54-3.28.47-7.51-1.56-9.75-4.69-1.4-1.95-1.51-1.87-.42.29,4.12,8.14,15.51,7.88,18.32-.42.67-1.97.44-2.35-.42-.72m52.92.34c.26,2.57,1.04,4.42,2.47,5.85,1.16,1.16,1.49,1.32,2.67,1.32.82,0,1.49-.18,1.72-.46.32-.39.25-.46-.5-.46-1.34,0-3.3-1.03-4.17-2.18-.83-1.09-1.25-2.01-1.93-4.23l-.42-1.37.15,1.53m17.35.33c-.35.91.19,4.47.92,6.07,1.56,3.4,4.3,5.38,7.76,5.6,2.39.16,4.29-.36,5.61-1.52l1.02-.9-1.07.54c-1.63.83-5.5.75-7.48-.15-3.11-1.42-5.05-4.14-5.69-7.97-.35-2.1-.71-2.66-1.08-1.68m4.48-.02c0,.68,1.78,3.11,2.98,4.06,3.92,3.1,9.83,3.9,13.96,1.87.67-.33.95-.52.62-.43s-1.91.25-3.51.35c-4.94.3-8.82-1.09-12.14-4.33-1.05-1.02-1.91-1.71-1.91-1.53m-1.5,1.07c-.03,2.56,2.04,5.72,4.61,7.05,1.71.88,2.07.7.53-.28-2.01-1.28-3.39-3.27-4.58-6.6l-.55-1.54v1.37m-6.34-.33c-1.28.78-2.16,2.08-2.42,3.55-.26,1.44-.2,1.4,1.37-.95.56-.84,1.14-1.67,1.72-2.5.61-.83.54-.85-.67-.1m-64.56,2.29c2.8,4.07,6.43,5.78,10.1,4.75l1.37-.38-1.37-.38c-2.74-.75-7.49-2.92-9.31-4.27-1.66-1.22-1.78-1.18-.78.27m59.52,1.02c-.73.16-1.3,1.56-.85,2.1.53.64,1.43.51,1.96-.3.73-1.11.13-2.08-1.1-1.8m5.59,1.09c-.9,2.49-3.87,3.98-6.77,3.38-.84-.17-1.53-.23-1.53-.13,0,.38,2.59,1.85,3.59,2.03,1.97.37,3.71-.04,4.83-1.12,1.21-1.17,1.56-2.54,1.05-4.08-.45-1.35-.7-1.37-1.16-.08m-67.57,2.15c1.22,1.78,3.99,3.65,6.17,4.18,2.58.62,6,.26,8.28-.86,1.07-.52,2.26-1.29,2.65-1.71l.71-.75-1.94.82c-1.78.75-2.28.82-6.06.82-4.01,0-4.17-.02-6.21-.99-1.15-.54-2.66-1.44-3.35-1.98l-1.26-.99,1.02,1.48m-4.69,1.65c.91,1.43,1.78,2.27,2.81,2.71,1.22.52,1.16.52,1.74-.06.78-.78.08-1.54-2.11-2.27-1.09-.36-2.06-.79-2.16-.94-.11-.16-.3-.27-.5-.28-.18,0-.08.38.21.84m5.03,2.8c0,.31,2.06,1.11,3.51,1.37.62.11.33-.12-.92-.72-1.95-.94-2.6-1.1-2.6-.65"/>
</svg>